<?xml version="1.0" encoding="UTF-8" standalone="no"?>
<!DOCTYPE svg PUBLIC "-//W3C//DTD SVG 1.1//EN" "http://www.w3.org/Graphics/SVG/1.1/DTD/svg11.dtd">
<svg xmlns="http://www.w3.org/2000/svg" version="1.1" viewBox="0.00 0.00 1448.00 1448.00">
<g stroke-width="2.00" fill="none" stroke-linecap="butt">
<path stroke="#885e10" vector-effect="non-scaling-stroke" d="
  M 631.49 172.14
  C 629.54 165.34 627.84 158.28 625.55 151.70
  Q 616.71 126.35 607.33 101.19
  C 603.62 91.22 597.12 89.99 586.92 91.60
  Q 574.04 93.63 561.20 95.85
  C 548.60 98.02 538.99 99.23 540.89 114.32
  Q 548.42 174.03 555.94 233.76
  Q 556.00 234.27 556.51 234.20
  Q 569.64 232.41 582.65 229.86
  C 584.99 229.41 588.21 229.80 590.98 228.49
  Q 591.48 228.25 592.03 228.25
  L 593.20 228.25
  Q 593.91 228.25 593.81 227.49
  L 580.34 126.26
  A 1.62 1.62 0.0 0 1 583.47 125.48
  Q 595.44 157.65 607.81 190.44
  Q 612.12 201.85 624.00 200.98
  Q 630.74 200.49 649.93 196.65
  C 659.41 194.76 661.40 188.26 661.68 179.06
  Q 662.70 145.50 663.46 112.32
  A 1.63 1.63 0.0 0 1 666.68 112.03
  L 687.42 212.07
  Q 687.53 212.59 688.05 212.51
  L 724.80 206.39
  A 0.61 0.60 -10.4 0 0 725.30 205.67
  Q 713.80 149.90 702.34 94.49
  C 700.27 84.50 698.27 73.67 685.74 75.25
  Q 678.26 76.20 650.02 81.11
  C 644.66 82.04 640.95 82.18 636.90 86.24
  C 632.91 90.23 632.59 95.15 632.56 100.69
  C 632.44 124.28 631.95 147.94 633.40 171.50
  Q 633.47 172.56 632.43 172.74
  A 0.84 0.83 -12.4 0 1 631.49 172.14"
/>
<path stroke="#885e10" vector-effect="non-scaling-stroke" d="
  M 823.50 216.99
  Q 823.50 217.42 824.18 217.11
  A 0.70 0.69 -8.6 0 0 824.58 216.57
  L 845.35 83.23
  A 0.45 0.44 -81.8 0 0 844.97 82.72
  L 803.79 76.38
  A 0.19 0.19 0.0 0 0 803.57 76.54
  L 782.78 209.97
  Q 782.70 210.50 783.23 210.59
  Q 794.88 212.54 806.65 214.21
  C 810.65 214.77 817.48 216.27 823.07 216.54
  Q 823.50 216.57 823.50 216.99"
/>
<path stroke="#885e10" vector-effect="non-scaling-stroke" d="
  M 982.20 253.01
  C 978.34 264.64 982.65 278.21 993.77 285.96
  Q 1021.99 305.62 1051.88 322.17
  A 0.76 0.75 29.5 0 0 1052.90 321.89
  L 1068.55 295.31
  Q 1068.84 294.83 1068.37 294.52
  Q 1049.21 281.75 1030.15 268.88
  C 1025.44 265.70 1026.44 261.19 1029.33 256.88
  Q 1054.87 218.79 1080.39 180.72
  A 0.82 0.81 -56.3 0 0 1080.17 179.59
  L 1045.73 156.55
  A 0.43 0.43 0.0 0 0 1045.13 156.67
  Q 1018.54 196.21 992.08 235.71
  Q 983.86 247.98 982.20 253.01"
/>
<path stroke="#885e10" vector-effect="non-scaling-stroke" d="
  M 428.07 269.62
  L 458.90 250.93
  Q 459.33 250.66 459.68 251.03
  L 480.11 271.90
  Q 480.39 272.19 480.74 271.98
  L 516.35 250.40
  Q 517.61 249.63 516.54 248.63
  Q 470.85 205.95 424.90 163.18
  C 413.92 152.96 408.46 157.07 396.36 164.29
  Q 385.02 171.07 373.80 178.04
  C 366.61 182.50 362.73 187.90 365.09 196.43
  Q 382.26 258.64 399.53 320.94
  A 0.18 0.18 0.0 0 0 399.80 321.04
  L 436.34 298.89
  A 0.70 0.69 65.9 0 0 436.64 298.09
  L 427.71 270.58
  Q 427.51 269.96 428.07 269.62"
/>
<path stroke="#885e10" vector-effect="non-scaling-stroke" d="
  M 289.69 333.15
  Q 291.08 325.31 289.24 320.01
  Q 278.76 289.76 267.99 259.04
  Q 267.70 258.23 267.15 258.89
  L 238.46 292.75
  A 1.03 1.02 -35.3 0 0 238.28 293.77
  L 258.71 347.29
  A 1.63 1.62 54.9 0 1 258.43 348.92
  L 254.76 353.28
  A 0.62 0.62 0.0 0 1 253.80 353.27
  C 243.76 340.71 229.19 330.04 216.75 319.56
  A 0.77 0.77 0.0 0 0 215.66 319.65
  L 188.98 351.10
  A 0.68 0.68 0.0 0 0 189.06 352.06
  L 291.71 439.07
  A 0.60 0.60 0.0 0 0 292.55 439.01
  L 319.38 407.38
  A 0.66 0.65 -49.7 0 0 319.31 406.46
  Q 302.78 392.46 286.41 378.59
  Q 282.54 375.31 276.10 371.70
  Q 275.59 371.42 275.96 370.97
  L 279.75 366.40
  A 0.83 0.82 -63.4 0 1 280.58 366.12
  L 341.37 380.60
  A 0.97 0.95 26.7 0 0 342.33 380.29
  L 372.23 345.01
  A 0.36 0.36 0.0 0 0 372.02 344.42
  Q 340.92 338.37 309.66 332.40
  Q 299.82 330.52 290.30 333.68
  Q 289.55 333.92 289.69 333.15"
/>
<path stroke="#885e10" vector-effect="non-scaling-stroke" d="
  M 620.01 288.02
  C 514.61 312.02 423.35 376.83 359.81 463.57
  C 293.34 554.31 268.31 662.70 279.54 774.23
  Q 290.16 879.78 348.20 967.41
  C 380.06 1015.51 422.31 1058.42 468.56 1091.46
  C 565.32 1160.59 686.12 1183.85 802.99 1164.48
  C 911.65 1146.47 1004.13 1087.54 1073.55 1002.81
  Q 1140.11 921.58 1161.55 819.57
  C 1164.60 805.05 1166.77 789.58 1168.70 774.49
  Q 1169.03 771.85 1169.18 769.21
  C 1169.26 767.76 1170.03 766.06 1169.89 764.45
  Q 1169.61 761.45 1169.64 760.99
  Q 1173.44 708.83 1166.67 656.98
  C 1166.47 655.50 1165.72 653.86 1165.76 652.08
  Q 1165.82 649.34 1165.66 648.45
  Q 1160.53 621.03 1156.04 604.49
  Q 1132.58 518.07 1075.31 446.94
  C 999.74 353.08 895.67 291.47 774.96 279.40
  C 722.73 274.18 670.06 276.63 620.01 288.02"
/>
<path stroke="#885e10" vector-effect="non-scaling-stroke" d="
  M 1136.32 371.88
  L 1158.89 400.11
  A 0.61 0.60 45.5 0 1 1158.89 400.86
  L 1141.14 423.44
  Q 1140.56 424.18 1141.15 424.91
  L 1167.24 457.53
  A 0.59 0.58 -46.6 0 0 1168.17 457.50
  Q 1203.50 408.32 1238.67 359.14
  C 1245.48 349.61 1249.97 343.44 1241.43 332.81
  Q 1231.75 320.76 1222.15 308.61
  C 1211.56 295.19 1206.38 297.77 1191.07 304.21
  Q 1136.68 327.09 1082.65 349.88
  A 0.86 0.86 0.0 0 0 1082.31 351.21
  L 1108.49 383.98
  Q 1108.77 384.34 1109.18 384.14
  L 1135.39 371.67
  Q 1135.94 371.41 1136.32 371.88"
/>
<path stroke="#885e10" vector-effect="non-scaling-stroke" d="
  M 1284.03 556.54
  A 0.55 0.55 0.0 0 1 1285.08 556.24
  C 1288.50 563.46 1293.24 569.39 1301.15 571.50
  C 1313.07 574.67 1334.71 566.45 1341.91 556.30
  C 1350.15 544.70 1343.80 524.11 1339.32 510.93
  Q 1329.62 482.42 1318.14 454.90
  A 0.71 0.70 68.7 0 0 1317.26 454.51
  L 1190.23 499.20
  Q 1189.65 499.40 1189.83 499.98
  Q 1197.82 527.05 1207.19 553.66
  C 1212.06 567.50 1215.06 575.58 1221.83 586.13
  C 1229.86 598.65 1241.09 601.14 1255.21 597.32
  C 1270.68 593.14 1285.67 584.49 1285.34 566.22
  C 1285.29 563.41 1284.41 559.77 1284.03 556.54"
/>
<path stroke="#885e10" vector-effect="non-scaling-stroke" d="
  M 210.39 550.41
  L 223.05 516.60
  A 0.63 0.63 0.0 0 1 223.72 516.19
  L 252.22 519.77
  A 1.18 1.17 13.5 0 0 253.46 519.02
  L 268.01 480.01
  A 0.68 0.67 12.6 0 0 267.43 479.10
  Q 203.98 473.77 140.50 468.53
  C 131.29 467.77 126.39 471.47 123.18 479.75
  Q 116.51 496.91 110.33 514.26
  C 107.82 521.33 109.94 527.57 115.98 532.02
  Q 167.69 570.06 219.26 607.88
  A 0.67 0.67 0.0 0 0 220.29 607.57
  L 235.00 568.25
  A 0.81 0.80 -63.3 0 0 234.69 567.30
  L 210.68 551.30
  Q 210.19 550.97 210.39 550.41"
/>
<path stroke="#885e10" vector-effect="non-scaling-stroke" d="
  M 1425.69 751.14
  L 1426.08 734.94
  A 0.64 0.63 0.9 0 0 1425.44 734.29
  L 1192.78 734.23
  A 0.63 0.63 0.0 0 0 1192.15 734.84
  Q 1191.31 770.32 1185.56 805.47
  Q 1170.24 899.19 1118.28 977.90
  C 1086.49 1026.07 1045.40 1068.62 999.19 1103.18
  C 947.38 1141.92 887.28 1169.52 823.76 1182.12
  Q 799.96 1186.84 775.79 1189.38
  C 732.30 1193.94 687.74 1192.57 644.18 1185.80
  C 519.26 1166.36 410.14 1091.90 337.68 989.57
  Q 272.43 897.43 259.31 783.49
  Q 256.50 759.15 255.82 734.84
  A 0.60 0.60 0.0 0 0 255.22 734.25
  L 22.76 734.25
  Q 21.91 734.25 21.92 735.10
  C 24.55 904.99 88.22 1066.24 201.46 1192.55
  C 397.44 1411.16 709.58 1484.97 982.18 1376.92
  C 1218.96 1283.07 1388.84 1066.45 1420.72 812.50
  Q 1422.55 797.88 1424.49 777.40
  C 1425.02 771.71 1424.89 762.97 1426.20 755.74
  Q 1426.56 753.75 1425.85 751.99
  Q 1425.68 751.58 1425.69 751.14"
/>
<path stroke="#885e10" vector-effect="non-scaling-stroke" d="
  M 437.15 227.91
  C 426.88 217.23 416.38 206.94 407.30 195.59
  Q 406.92 195.11 406.40 195.43
  L 402.90 197.60
  Q 402.41 197.90 402.65 198.42
  C 408.75 212.01 413.08 226.21 417.74 240.32
  Q 417.89 240.76 418.29 240.52
  L 436.98 229.21
  Q 437.88 228.67 437.15 227.91"
/>
<path stroke="#885e10" vector-effect="non-scaling-stroke" d="
  M 313.05 830.97
  C 357.09 999.22 499.20 1123.28 671.32 1145.11
  C 901.62 1174.31 1114.89 1010.29 1144.93 779.60
  C 1176.98 533.39 993.75 313.36 746.11 299.77
  Q 745.80 299.76 745.52 299.88
  Q 745.28 299.98 745.00 299.96
  Q 729.68 298.90 714.31 299.29
  C 499.39 304.75 323.37 468.10 301.49 681.37
  C 300.96 686.61 300.99 693.03 300.36 698.92
  C 299.63 705.75 300.06 712.27 299.74 719.05
  C 299.35 726.94 300.24 734.77 299.78 742.75
  Q 299.58 746.26 300.94 755.08
  C 301.38 757.97 300.60 760.80 301.08 763.86
  C 302.43 772.61 303.17 781.37 304.93 790.08
  Q 305.32 792.03 306.11 797.91
  C 307.73 810.07 310.86 822.63 313.05 830.97"
/>
<path stroke="#885e10" vector-effect="non-scaling-stroke" d="
  M 1178.72 375.76
  C 1188.00 364.33 1196.57 352.52 1207.15 341.98
  A 0.71 0.70 48.9 0 0 1207.21 341.04
  L 1204.74 337.94
  Q 1204.29 337.38 1203.68 337.74
  Q 1184.62 348.71 1164.48 357.58
  A 0.78 0.78 0.0 0 0 1164.19 358.78
  L 1177.77 375.75
  Q 1178.24 376.34 1178.72 375.76"
/>
<path stroke="#885e10" vector-effect="non-scaling-stroke" d="
  M 656.48 864.75
  L 791.48 864.75
  Q 792.00 864.75 792.11 865.26
  L 817.03 971.44
  A 0.73 0.72 -6.5 0 0 817.74 972.00
  L 975.74 972.00
  A 0.33 0.32 82.4 0 0 976.05 971.59
  Q 912.95 747.95 849.78 524.35
  Q 845.83 510.35 843.35 505.46
  C 834.89 488.77 818.76 477.49 799.92 476.00
  Q 795.59 475.65 791.25 475.64
  Q 722.15 475.46 653.06 475.62
  C 631.03 475.68 611.76 488.59 603.20 508.55
  Q 601.75 511.95 597.32 527.63
  Q 582.96 578.45 568.58 629.27
  Q 565.89 638.78 564.49 642.85
  Q 564.33 643.31 564.36 643.79
  Q 564.38 644.27 564.18 644.98
  Q 518.16 807.87 471.96 971.60
  A 0.31 0.31 0.0 0 0 472.26 972.00
  L 630.28 972.00
  Q 630.84 972.00 630.96 971.46
  L 655.91 865.20
  Q 656.02 864.75 656.48 864.75"
/>
<path stroke="#885e10" vector-effect="non-scaling-stroke" d="
  M 1305.34 502.97
  L 1282.32 511.08
  A 0.58 0.58 0.0 0 0 1281.97 511.82
  L 1287.68 528.05
  A 9.49 9.26 70.6 0 0 1299.57 533.92
  L 1306.21 531.59
  A 9.49 9.26 70.6 0 0 1311.79 519.56
  L 1306.08 503.33
  A 0.58 0.58 0.0 0 0 1305.34 502.97"
/>
<path stroke="#885e10" vector-effect="non-scaling-stroke" d="
  M 1257.81 519.66
  L 1229.70 529.56
  A 0.35 0.35 0.0 0 0 1229.49 530.01
  L 1235.76 547.83
  A 10.77 10.66 70.6 0 0 1249.40 554.45
  L 1258.06 551.40
  A 10.77 10.66 70.6 0 0 1264.53 537.70
  L 1258.25 519.88
  A 0.35 0.35 0.0 0 0 1257.81 519.66"
/>
<path stroke="#885e10" vector-effect="non-scaling-stroke" d="
  M 146.38 510.13
  C 159.62 517.14 171.65 525.48 183.98 533.55
  A 0.56 0.56 0.0 0 0 184.81 533.28
  L 192.58 512.58
  Q 192.76 512.11 192.26 512.04
  C 177.50 509.92 163.88 508.61 148.30 504.96
  A 0.57 0.57 0.0 0 0 147.63 505.31
  L 146.09 509.34
  A 0.64 0.63 25.2 0 0 146.38 510.13"
/>
<path stroke="#885e10" vector-effect="non-scaling-stroke" d="
  M 735.50 606.81
  Q 734.70 599.81 733.68 592.74
  Q 733.58 592.07 732.91 592.07
  L 714.85 592.03
  A 0.74 0.73 3.5 0 0 714.12 592.67
  Q 710.82 619.82 708.61 631.92
  C 708.07 634.88 708.06 637.78 707.57 639.99
  Q 694.62 697.51 681.32 754.67
  A 0.68 0.68 0.0 0 0 681.98 755.50
  L 766.26 755.50
  A 0.42 0.42 0.0 0 0 766.67 754.99
  Q 756.51 710.50 746.31 666.23
  C 741.82 646.69 737.77 626.74 735.50 606.81"
/>
<path stroke="#885e10" vector-effect="non-scaling-stroke" d="
  M 1280.92 888.74
  C 1283.16 874.75 1279.83 866.01 1266.80 859.49
  C 1250.21 851.18 1232.32 848.85 1221.06 867.06
  C 1214.56 877.59 1211.23 887.15 1206.31 901.19
  Q 1198.09 924.63 1191.25 948.43
  A 0.34 0.32 -72.8 0 0 1191.45 948.83
  L 1318.73 993.57
  Q 1319.32 993.78 1319.56 993.20
  Q 1333.40 960.13 1344.53 926.05
  C 1349.77 910.00 1353.38 890.71 1336.36 880.18
  C 1317.83 868.72 1294.02 864.95 1282.65 888.38
  Q 1282.46 888.77 1282.19 888.90
  Q 1281.87 889.06 1281.47 889.05"
/>
<path stroke="#885e10" vector-effect="non-scaling-stroke" d="
  M 149.21 958.40
  A 0.93 0.93 0.0 0 1 148.86 959.50
  L 124.86 975.53
  Q 124.40 975.84 124.59 976.36
  L 139.46 1016.01
  A 0.46 0.45 61.2 0 0 140.16 1016.22
  Q 190.96 978.96 241.69 941.65
  C 249.22 936.12 252.34 930.77 248.93 921.30
  Q 239.75 895.87 235.83 886.18
  C 232.08 876.91 225.07 876.20 215.44 877.01
  Q 153.51 882.21 91.95 887.32
  Q 91.29 887.37 91.52 887.99
  L 106.34 927.64
  A 0.60 0.59 75.6 0 0 106.97 928.02
  L 135.46 924.43
  A 1.22 1.21 75.9 0 1 136.76 925.21
  L 149.21 958.40"
/>
<path stroke="#885e10" vector-effect="non-scaling-stroke" d="
  M 282.41 1078.81
  L 278.56 1074.16
  Q 278.14 1073.64 278.72 1073.30
  C 292.57 1065.35 305.70 1052.73 318.15 1042.07
  Q 318.57 1041.70 318.21 1041.27
  L 291.34 1009.53
  Q 291.00 1009.13 290.59 1009.47
  L 187.76 1096.61
  Q 187.33 1096.97 187.69 1097.40
  L 214.47 1128.98
  A 0.77 0.77 0.0 0 0 215.55 1129.07
  Q 230.89 1116.05 246.54 1102.78
  Q 251.66 1098.43 256.88 1092.26
  Q 257.27 1091.80 257.66 1092.26
  L 261.25 1096.49
  A 1.31 1.31 0.0 0 1 261.46 1097.86
  L 237.37 1155.09
  A 1.08 1.08 0.0 0 0 237.54 1156.21
  L 267.37 1191.40
  A 0.37 0.37 0.0 0 0 267.99 1191.29
  Q 278.97 1162.03 289.72 1132.92
  C 292.43 1125.60 293.09 1119.63 291.94 1112.39
  A 0.50 0.50 0.0 0 1 292.63 1111.85
  Q 299.11 1114.54 306.28 1113.36
  Q 337.90 1108.15 369.46 1102.72
  A 0.42 0.42 0.0 0 0 369.71 1102.03
  L 340.85 1067.98
  A 0.86 0.85 -25.8 0 0 340.01 1067.69
  L 283.42 1079.17
  A 1.05 1.05 0.0 0 1 282.41 1078.81"
/>
<path stroke="#885e10" vector-effect="non-scaling-stroke" d="
  M 1197.84 1124.92
  L 1219.98 1097.24
  A 1.55 1.55 0.0 0 1 1221.86 1096.81
  L 1247.53 1108.96
  A 0.62 0.61 31.2 0 0 1248.28 1108.78
  L 1274.80 1075.56
  Q 1275.11 1075.17 1274.65 1074.98
  Q 1215.61 1050.03 1156.42 1025.43
  Q 1144.93 1020.66 1136.88 1030.65
  Q 1126.03 1044.11 1115.29 1057.67
  C 1108.65 1066.06 1109.24 1071.64 1115.55 1080.47
  Q 1152.08 1131.62 1188.70 1182.58
  A 0.40 0.39 -43.5 0 0 1189.33 1182.59
  L 1215.79 1149.45
  Q 1216.12 1149.03 1215.80 1148.61
  L 1197.84 1125.75
  Q 1197.51 1125.33 1197.84 1124.92"
/>
<path stroke="#885e10" vector-effect="non-scaling-stroke" d="
  M 328.48 1244.01
  L 365.21 1266.26
  Q 365.58 1266.49 365.88 1266.18
  L 386.35 1245.31
  Q 386.65 1245.01 387.01 1245.23
  L 418.07 1264.01
  Q 418.51 1264.27 418.35 1264.75
  L 409.31 1292.35
  Q 409.14 1292.88 409.62 1293.17
  L 445.83 1315.18
  Q 446.36 1315.50 446.53 1314.90
  Q 462.69 1256.48 478.91 1197.84
  C 482.40 1185.20 483.49 1179.18 471.15 1171.63
  Q 456.89 1162.92 442.55 1154.37
  C 433.55 1149.00 427.86 1151.18 420.36 1158.15
  Q 374.34 1200.97 328.46 1243.85
  A 0.10 0.10 0.0 0 0 328.48 1244.01"
/>
<path stroke="#885e10" vector-effect="non-scaling-stroke" d="
  M 1029.18 1267.30
  C 1039.41 1282.56 1057.15 1285.90 1072.53 1275.76
  C 1091.04 1263.53 1109.67 1250.77 1126.59 1236.36
  A 0.60 0.60 0.0 0 0 1126.67 1235.54
  L 1107.95 1211.07
  Q 1107.61 1210.62 1107.14 1210.94
  Q 1089.84 1222.66 1072.45 1234.24
  C 1067.18 1237.75 1062.49 1240.15 1058.31 1233.94
  Q 1032.23 1195.14 1006.37 1156.58
  A 0.69 0.69 0.0 0 0 1005.41 1156.39
  L 970.99 1179.52
  A 0.51 0.50 -34.3 0 0 970.85 1180.23
  Q 1000.01 1223.78 1029.18 1267.30"
/>
<path stroke="#885e10" vector-effect="non-scaling-stroke" d="
  M 596.49 1321.32
  C 597.11 1342.72 612.73 1338.94 626.74 1342.07
  C 635.41 1344.01 645.33 1345.17 649.47 1335.44
  Q 652.15 1329.14 660.08 1307.14
  Q 660.29 1306.57 660.73 1304.81
  C 661.19 1302.94 662.60 1300.57 663.07 1299.23
  Q 666.01 1290.89 669.31 1282.69
  Q 669.47 1282.31 669.32 1281.92
  C 669.18 1281.53 669.24 1281.09 669.48 1280.70
  C 672.26 1276.37 672.04 1271.98 674.91 1267.59
  Q 675.13 1267.25 675.53 1267.17
  Q 677.44 1266.80 678.02 1268.00
  Q 678.38 1268.72 678.03 1270.46
  C 677.22 1274.58 676.92 1278.86 676.17 1282.82
  C 674.49 1291.66 674.20 1300.93 672.95 1309.31
  Q 672.09 1315.05 671.32 1320.81
  C 671.01 1323.10 670.11 1327.44 670.02 1330.78
  Q 669.88 1335.90 669.49 1338.28
  Q 667.83 1348.48 666.40 1358.71
  C 665.94 1362.05 666.19 1366.12 665.32 1369.92
  Q 665.20 1370.44 665.73 1370.53
  C 671.80 1371.53 677.40 1372.74 683.79 1373.51
  Q 692.94 1374.60 701.79 1376.84
  A 1.18 1.18 0.0 0 0 703.26 1375.71
  Q 703.29 1372.73 703.71 1369.50
  Q 711.08 1312.68 718.12 1255.82
  C 719.38 1245.66 713.92 1241.29 704.77 1239.59
  Q 688.56 1236.58 672.25 1234.12
  C 662.35 1232.62 654.48 1232.74 650.78 1242.81
  Q 645.86 1256.20 632.37 1296.29
  Q 629.37 1305.20 627.07 1314.31
  Q 626.73 1315.64 625.55 1315.05
  A 0.99 0.98 15.9 0 1 625.02 1314.10
  C 626.73 1290.88 625.67 1267.61 625.27 1244.19
  C 625.09 1233.91 623.78 1226.35 612.92 1224.31
  Q 604.85 1222.80 580.01 1218.79
  C 569.27 1217.06 560.84 1216.97 558.30 1229.08
  Q 549.41 1271.31 533.65 1348.29
  Q 533.54 1348.85 534.10 1348.93
  L 570.94 1354.65
  Q 571.45 1354.73 571.55 1354.23
  L 591.46 1254.35
  A 1.72 1.72 0.0 0 1 594.86 1254.65
  Q 595.52 1287.51 596.49 1321.32"
/>
<path stroke="#885e10" vector-effect="non-scaling-stroke" d="
  M 804.54 1372.73
  L 845.12 1366.42
  A 0.54 0.54 0.0 0 0 845.56 1365.81
  L 824.91 1232.92
  A 0.80 0.80 0.0 0 0 824.00 1232.25
  L 783.51 1238.54
  A 0.72 0.51 -23.3 0 0 782.92 1239.50
  Q 783.15 1239.69 783.28 1240.50
  Q 792.04 1296.99 800.94 1353.47
  Q 802.42 1362.88 803.71 1372.11
  A 0.73 0.73 0.0 0 0 804.54 1372.73"
/>
<path stroke="#885e10" vector-effect="non-scaling-stroke" d="
  M 1231.36 918.56
  L 1254.45 926.74
  A 0.52 0.52 0.0 0 0 1255.11 926.42
  L 1260.91 910.07
  A 9.37 9.14 -70.5 0 0 1255.42 898.18
  L 1248.57 895.76
  A 9.37 9.14 -70.5 0 0 1236.83 901.54
  L 1231.04 917.90
  A 0.52 0.52 0.0 0 0 1231.36 918.56"
/>
<path stroke="#885e10" vector-effect="non-scaling-stroke" d="
  M 1278.97 935.27
  L 1307.00 945.20
  A 0.36 0.36 0.0 0 0 1307.46 944.98
  L 1313.70 927.36
  A 10.89 10.41 -70.5 0 0 1307.52 913.62
  L 1298.43 910.40
  A 10.89 10.41 -70.5 0 0 1284.99 917.19
  L 1278.75 934.81
  A 0.36 0.36 0.0 0 0 1278.97 935.27"
/>
<path stroke="#885e10" vector-effect="non-scaling-stroke" d="
  M 213.54 917.49
  L 212.12 913.74
  A 0.90 0.88 -16.7 0 0 211.08 913.19
  C 196.75 916.64 182.35 918.13 167.94 920.12
  A 0.84 0.84 0.0 0 0 167.27 921.25
  L 174.76 941.26
  A 0.73 0.73 0.0 0 0 175.85 941.61
  C 188.04 933.48 200.21 925.10 213.24 918.27
  A 0.64 0.64 0.0 0 0 213.54 917.49"
/>
<path stroke="#885e10" vector-effect="non-scaling-stroke" d="
  M 1192.60 1082.61
  Q 1172.31 1073.62 1153.00 1062.70
  Q 1152.37 1062.34 1151.91 1062.91
  L 1149.62 1065.79
  Q 1149.26 1066.24 1149.66 1066.67
  Q 1164.52 1082.81 1177.60 1100.44
  A 0.89 0.89 0.0 0 0 1179.01 1100.47
  L 1192.77 1083.30
  A 0.45 0.44 31.6 0 0 1192.60 1082.61"
/>
<path stroke="#885e10" vector-effect="non-scaling-stroke" d="
  M 408.77 1223.30
  L 427.24 1234.52
  A 0.91 0.91 0.0 0 0 428.58 1234.00
  Q 434.73 1212.94 443.17 1192.69
  Q 443.38 1192.18 442.90 1191.88
  L 439.50 1189.74
  Q 439.04 1189.45 438.69 1189.86
  C 428.94 1201.26 418.99 1211.81 408.66 1222.45
  A 0.55 0.54 -52.7 0 0 408.77 1223.30"
/>
</g>
<path fill="#101820" d="
  M 1447.45 723.79
  A 723.44 723.44 0.0 0 1 724.01 1447.23
  A 723.44 723.44 0.0 0 1 0.57 723.79
  A 723.44 723.44 0.0 0 1 724.01 0.35
  A 723.44 723.44 0.0 0 1 1447.45 723.79
  Z
  M 631.49 172.14
  C 629.54 165.34 627.84 158.28 625.55 151.70
  Q 616.71 126.35 607.33 101.19
  C 603.62 91.22 597.12 89.99 586.92 91.60
  Q 574.04 93.63 561.20 95.85
  C 548.60 98.02 538.99 99.23 540.89 114.32
  Q 548.42 174.03 555.94 233.76
  Q 556.00 234.27 556.51 234.20
  Q 569.64 232.41 582.65 229.86
  C 584.99 229.41 588.21 229.80 590.98 228.49
  Q 591.48 228.25 592.03 228.25
  L 593.20 228.25
  Q 593.91 228.25 593.81 227.49
  L 580.34 126.26
  A 1.62 1.62 0.0 0 1 583.47 125.48
  Q 595.44 157.65 607.81 190.44
  Q 612.12 201.85 624.00 200.98
  Q 630.74 200.49 649.93 196.65
  C 659.41 194.76 661.40 188.26 661.68 179.06
  Q 662.70 145.50 663.46 112.32
  A 1.63 1.63 0.0 0 1 666.68 112.03
  L 687.42 212.07
  Q 687.53 212.59 688.05 212.51
  L 724.80 206.39
  A 0.61 0.60 -10.4 0 0 725.30 205.67
  Q 713.80 149.90 702.34 94.49
  C 700.27 84.50 698.27 73.67 685.74 75.25
  Q 678.26 76.20 650.02 81.11
  C 644.66 82.04 640.95 82.18 636.90 86.24
  C 632.91 90.23 632.59 95.15 632.56 100.69
  C 632.44 124.28 631.95 147.94 633.40 171.50
  Q 633.47 172.56 632.43 172.74
  A 0.84 0.83 -12.4 0 1 631.49 172.14
  Z
  M 823.50 216.99
  Q 823.50 217.42 824.18 217.11
  A 0.70 0.69 -8.6 0 0 824.58 216.57
  L 845.35 83.23
  A 0.45 0.44 -81.8 0 0 844.97 82.72
  L 803.79 76.38
  A 0.19 0.19 0.0 0 0 803.57 76.54
  L 782.78 209.97
  Q 782.70 210.50 783.23 210.59
  Q 794.88 212.54 806.65 214.21
  C 810.65 214.77 817.48 216.27 823.07 216.54
  Q 823.50 216.57 823.50 216.99
  Z
  M 982.20 253.01
  C 978.34 264.64 982.65 278.21 993.77 285.96
  Q 1021.99 305.62 1051.88 322.17
  A 0.76 0.75 29.5 0 0 1052.90 321.89
  L 1068.55 295.31
  Q 1068.84 294.83 1068.37 294.52
  Q 1049.21 281.75 1030.15 268.88
  C 1025.44 265.70 1026.44 261.19 1029.33 256.88
  Q 1054.87 218.79 1080.39 180.72
  A 0.82 0.81 -56.3 0 0 1080.17 179.59
  L 1045.73 156.55
  A 0.43 0.43 0.0 0 0 1045.13 156.67
  Q 1018.54 196.21 992.08 235.71
  Q 983.86 247.98 982.20 253.01
  Z
  M 428.07 269.62
  L 458.90 250.93
  Q 459.33 250.66 459.68 251.03
  L 480.11 271.90
  Q 480.39 272.19 480.74 271.98
  L 516.35 250.40
  Q 517.61 249.63 516.54 248.63
  Q 470.85 205.95 424.90 163.18
  C 413.92 152.96 408.46 157.07 396.36 164.29
  Q 385.02 171.07 373.80 178.04
  C 366.61 182.50 362.73 187.90 365.09 196.43
  Q 382.26 258.64 399.53 320.94
  A 0.18 0.18 0.0 0 0 399.80 321.04
  L 436.34 298.89
  A 0.70 0.69 65.9 0 0 436.64 298.09
  L 427.71 270.58
  Q 427.51 269.96 428.07 269.62
  Z
  M 289.69 333.15
  Q 291.08 325.31 289.24 320.01
  Q 278.76 289.76 267.99 259.04
  Q 267.70 258.23 267.15 258.89
  L 238.46 292.75
  A 1.03 1.02 -35.3 0 0 238.28 293.77
  L 258.71 347.29
  A 1.63 1.62 54.9 0 1 258.43 348.92
  L 254.76 353.28
  A 0.62 0.62 0.0 0 1 253.80 353.27
  C 243.76 340.71 229.19 330.04 216.75 319.56
  A 0.77 0.77 0.0 0 0 215.66 319.65
  L 188.98 351.10
  A 0.68 0.68 0.0 0 0 189.06 352.06
  L 291.71 439.07
  A 0.60 0.60 0.0 0 0 292.55 439.01
  L 319.38 407.38
  A 0.66 0.65 -49.7 0 0 319.31 406.46
  Q 302.78 392.46 286.41 378.59
  Q 282.54 375.31 276.10 371.70
  Q 275.59 371.42 275.96 370.97
  L 279.75 366.40
  A 0.83 0.82 -63.4 0 1 280.58 366.12
  L 341.37 380.60
  A 0.97 0.95 26.7 0 0 342.33 380.29
  L 372.23 345.01
  A 0.36 0.36 0.0 0 0 372.02 344.42
  Q 340.92 338.37 309.66 332.40
  Q 299.82 330.52 290.30 333.68
  Q 289.55 333.92 289.69 333.15
  Z
  M 620.01 288.02
  C 514.61 312.02 423.35 376.83 359.81 463.57
  C 293.34 554.31 268.31 662.70 279.54 774.23
  Q 290.16 879.78 348.20 967.41
  C 380.06 1015.51 422.31 1058.42 468.56 1091.46
  C 565.32 1160.59 686.12 1183.85 802.99 1164.48
  C 911.65 1146.47 1004.13 1087.54 1073.55 1002.81
  Q 1140.11 921.58 1161.55 819.57
  C 1164.60 805.05 1166.77 789.58 1168.70 774.49
  Q 1169.03 771.85 1169.18 769.21
  C 1169.26 767.76 1170.03 766.06 1169.89 764.45
  Q 1169.61 761.45 1169.64 760.99
  Q 1173.44 708.83 1166.67 656.98
  C 1166.47 655.50 1165.72 653.86 1165.76 652.08
  Q 1165.82 649.34 1165.66 648.45
  Q 1160.53 621.03 1156.04 604.49
  Q 1132.58 518.07 1075.31 446.94
  C 999.74 353.08 895.67 291.47 774.96 279.40
  C 722.73 274.18 670.06 276.63 620.01 288.02
  Z
  M 1136.32 371.88
  L 1158.89 400.11
  A 0.61 0.60 45.5 0 1 1158.89 400.86
  L 1141.14 423.44
  Q 1140.56 424.18 1141.15 424.91
  L 1167.24 457.53
  A 0.59 0.58 -46.6 0 0 1168.17 457.50
  Q 1203.50 408.32 1238.67 359.14
  C 1245.48 349.61 1249.97 343.44 1241.43 332.81
  Q 1231.75 320.76 1222.15 308.61
  C 1211.56 295.19 1206.38 297.77 1191.07 304.21
  Q 1136.68 327.09 1082.65 349.88
  A 0.86 0.86 0.0 0 0 1082.31 351.21
  L 1108.49 383.98
  Q 1108.77 384.34 1109.18 384.14
  L 1135.39 371.67
  Q 1135.94 371.41 1136.32 371.88
  Z
  M 1284.03 556.54
  A 0.55 0.55 0.0 0 1 1285.08 556.24
  C 1288.50 563.46 1293.24 569.39 1301.15 571.50
  C 1313.07 574.67 1334.71 566.45 1341.91 556.30
  C 1350.15 544.70 1343.80 524.11 1339.32 510.93
  Q 1329.62 482.42 1318.14 454.90
  A 0.71 0.70 68.7 0 0 1317.26 454.51
  L 1190.23 499.20
  Q 1189.65 499.40 1189.83 499.98
  Q 1197.82 527.05 1207.19 553.66
  C 1212.06 567.50 1215.06 575.58 1221.83 586.13
  C 1229.86 598.65 1241.09 601.14 1255.21 597.32
  C 1270.68 593.14 1285.67 584.49 1285.34 566.22
  C 1285.29 563.41 1284.41 559.77 1284.03 556.54
  Z
  M 210.39 550.41
  L 223.05 516.60
  A 0.63 0.63 0.0 0 1 223.72 516.19
  L 252.22 519.77
  A 1.18 1.17 13.5 0 0 253.46 519.02
  L 268.01 480.01
  A 0.68 0.67 12.6 0 0 267.43 479.10
  Q 203.98 473.77 140.50 468.53
  C 131.29 467.77 126.39 471.47 123.18 479.75
  Q 116.51 496.91 110.33 514.26
  C 107.82 521.33 109.94 527.57 115.98 532.02
  Q 167.69 570.06 219.26 607.88
  A 0.67 0.67 0.0 0 0 220.29 607.57
  L 235.00 568.25
  A 0.81 0.80 -63.3 0 0 234.69 567.30
  L 210.68 551.30
  Q 210.19 550.97 210.39 550.41
  Z
  M 1425.69 751.14
  L 1426.08 734.94
  A 0.64 0.63 0.9 0 0 1425.44 734.29
  L 1192.78 734.23
  A 0.63 0.63 0.0 0 0 1192.15 734.84
  Q 1191.31 770.32 1185.56 805.47
  Q 1170.24 899.19 1118.28 977.90
  C 1086.49 1026.07 1045.40 1068.62 999.19 1103.18
  C 947.38 1141.92 887.28 1169.52 823.76 1182.12
  Q 799.96 1186.84 775.79 1189.38
  C 732.30 1193.94 687.74 1192.57 644.18 1185.80
  C 519.26 1166.36 410.14 1091.90 337.68 989.57
  Q 272.43 897.43 259.31 783.49
  Q 256.50 759.15 255.82 734.84
  A 0.60 0.60 0.0 0 0 255.22 734.25
  L 22.76 734.25
  Q 21.91 734.25 21.92 735.10
  C 24.55 904.99 88.22 1066.24 201.46 1192.55
  C 397.44 1411.16 709.58 1484.97 982.18 1376.92
  C 1218.96 1283.07 1388.84 1066.45 1420.72 812.50
  Q 1422.55 797.88 1424.49 777.40
  C 1425.02 771.71 1424.89 762.97 1426.20 755.74
  Q 1426.56 753.75 1425.85 751.99
  Q 1425.68 751.58 1425.69 751.14
  Z"
/>
<path fill="#ffa300" d="
  M 631.49 172.14
  A 0.84 0.83 -12.4 0 0 632.43 172.74
  Q 633.47 172.56 633.40 171.50
  C 631.95 147.94 632.44 124.28 632.56 100.69
  C 632.59 95.15 632.91 90.23 636.90 86.24
  C 640.95 82.18 644.66 82.04 650.02 81.11
  Q 678.26 76.20 685.74 75.25
  C 698.27 73.67 700.27 84.50 702.34 94.49
  Q 713.80 149.90 725.30 205.67
  A 0.61 0.60 -10.4 0 1 724.80 206.39
  L 688.05 212.51
  Q 687.53 212.59 687.42 212.07
  L 666.68 112.03
  A 1.63 1.63 0.0 0 0 663.46 112.32
  Q 662.70 145.50 661.68 179.06
  C 661.40 188.26 659.41 194.76 649.93 196.65
  Q 630.74 200.49 624.00 200.98
  Q 612.12 201.85 607.81 190.44
  Q 595.44 157.65 583.47 125.48
  A 1.62 1.62 0.0 0 0 580.34 126.26
  L 593.81 227.49
  Q 593.91 228.25 593.20 228.25
  L 592.03 228.25
  Q 591.48 228.25 590.98 228.49
  C 588.21 229.80 584.99 229.41 582.65 229.86
  Q 569.64 232.41 556.51 234.20
  Q 556.00 234.27 555.94 233.76
  Q 548.42 174.03 540.89 114.32
  C 538.99 99.23 548.60 98.02 561.20 95.85
  Q 574.04 93.63 586.92 91.60
  C 597.12 89.99 603.62 91.22 607.33 101.19
  Q 616.71 126.35 625.55 151.70
  C 627.84 158.28 629.54 165.34 631.49 172.14
  Z"
/>
<path fill="#ffa300" d="
  M 823.07 216.54
  C 817.48 216.27 810.65 214.77 806.65 214.21
  Q 794.88 212.54 783.23 210.59
  Q 782.70 210.50 782.78 209.97
  L 803.57 76.54
  A 0.19 0.19 0.0 0 1 803.79 76.38
  L 844.97 82.72
  A 0.45 0.44 -81.8 0 1 845.35 83.23
  L 824.58 216.57
  A 0.70 0.69 -8.6 0 1 824.18 217.11
  Q 823.50 217.42 823.50 216.99
  Q 823.50 216.57 823.07 216.54
  Z"
/>
<path fill="#ffa300" d="
  M 993.77 285.96
  C 982.65 278.21 978.34 264.64 982.20 253.01
  Q 983.86 247.98 992.08 235.71
  Q 1018.54 196.21 1045.13 156.67
  A 0.43 0.43 0.0 0 1 1045.73 156.55
  L 1080.17 179.59
  A 0.82 0.81 -56.3 0 1 1080.39 180.72
  Q 1054.87 218.79 1029.33 256.88
  C 1026.44 261.19 1025.44 265.70 1030.15 268.88
  Q 1049.21 281.75 1068.37 294.52
  Q 1068.84 294.83 1068.55 295.31
  L 1052.90 321.89
  A 0.76 0.75 29.5 0 1 1051.88 322.17
  Q 1021.99 305.62 993.77 285.96
  Z"
/>
<path fill="#ffa300" d="
  M 427.71 270.58
  L 436.64 298.09
  A 0.70 0.69 65.9 0 1 436.34 298.89
  L 399.80 321.04
  A 0.18 0.18 0.0 0 1 399.53 320.94
  Q 382.26 258.64 365.09 196.43
  C 362.73 187.90 366.61 182.50 373.80 178.04
  Q 385.02 171.07 396.36 164.29
  C 408.46 157.07 413.92 152.96 424.90 163.18
  Q 470.85 205.95 516.54 248.63
  Q 517.61 249.63 516.35 250.40
  L 480.74 271.98
  Q 480.39 272.19 480.11 271.90
  L 459.68 251.03
  Q 459.33 250.66 458.90 250.93
  L 428.07 269.62
  Q 427.51 269.96 427.71 270.58
  Z
  M 437.15 227.91
  C 426.88 217.23 416.38 206.94 407.30 195.59
  Q 406.92 195.11 406.40 195.43
  L 402.90 197.60
  Q 402.41 197.90 402.65 198.42
  C 408.75 212.01 413.08 226.21 417.74 240.32
  Q 417.89 240.76 418.29 240.52
  L 436.98 229.21
  Q 437.88 228.67 437.15 227.91
  Z"
/>
<path fill="#101820" d="
  M 437.15 227.91
  Q 437.88 228.67 436.98 229.21
  L 418.29 240.52
  Q 417.89 240.76 417.74 240.32
  C 413.08 226.21 408.75 212.01 402.65 198.42
  Q 402.41 197.90 402.90 197.60
  L 406.40 195.43
  Q 406.92 195.11 407.30 195.59
  C 416.38 206.94 426.88 217.23 437.15 227.91
  Z"
/>
<path fill="#ffa300" d="
  M 290.30 333.68
  Q 299.82 330.52 309.66 332.40
  Q 340.92 338.37 372.02 344.42
  A 0.36 0.36 0.0 0 1 372.23 345.01
  L 342.33 380.29
  A 0.97 0.95 26.7 0 1 341.37 380.60
  L 280.58 366.12
  A 0.83 0.82 -63.4 0 0 279.75 366.40
  L 275.96 370.97
  Q 275.59 371.42 276.10 371.70
  Q 282.54 375.31 286.41 378.59
  Q 302.78 392.46 319.31 406.46
  A 0.66 0.65 -49.7 0 1 319.38 407.38
  L 292.55 439.01
  A 0.60 0.60 0.0 0 1 291.71 439.07
  L 189.06 352.06
  A 0.68 0.68 0.0 0 1 188.98 351.10
  L 215.66 319.65
  A 0.77 0.77 0.0 0 1 216.75 319.56
  C 229.19 330.04 243.76 340.71 253.80 353.27
  A 0.62 0.62 0.0 0 0 254.76 353.28
  L 258.43 348.92
  A 1.63 1.62 54.9 0 0 258.71 347.29
  L 238.28 293.77
  A 1.03 1.02 -35.3 0 1 238.46 292.75
  L 267.15 258.89
  Q 267.70 258.23 267.99 259.04
  Q 278.76 289.76 289.24 320.01
  Q 291.08 325.31 289.69 333.15
  Q 289.55 333.92 290.30 333.68
  Z"
/>
<path fill="#ffa300" d="
  M 359.81 463.57
  C 423.35 376.83 514.61 312.02 620.01 288.02
  C 670.06 276.63 722.73 274.18 774.96 279.40
  C 895.67 291.47 999.74 353.08 1075.31 446.94
  Q 1132.58 518.07 1156.04 604.49
  Q 1160.53 621.03 1165.66 648.45
  Q 1165.82 649.34 1165.76 652.08
  C 1165.72 653.86 1166.47 655.50 1166.67 656.98
  Q 1173.44 708.83 1169.64 760.99
  Q 1169.61 761.45 1169.89 764.45
  C 1170.03 766.06 1169.26 767.76 1169.18 769.21
  Q 1169.03 771.85 1168.70 774.49
  C 1166.77 789.58 1164.60 805.05 1161.55 819.57
  Q 1140.11 921.58 1073.55 1002.81
  C 1004.13 1087.54 911.65 1146.47 802.99 1164.48
  C 686.12 1183.85 565.32 1160.59 468.56 1091.46
  C 422.31 1058.42 380.06 1015.51 348.20 967.41
  Q 290.16 879.78 279.54 774.23
  C 268.31 662.70 293.34 554.31 359.81 463.57
  Z
  M 313.05 830.97
  C 357.09 999.22 499.20 1123.28 671.32 1145.11
  C 901.62 1174.31 1114.89 1010.29 1144.93 779.60
  C 1176.98 533.39 993.75 313.36 746.11 299.77
  Q 745.80 299.76 745.52 299.88
  Q 745.28 299.98 745.00 299.96
  Q 729.68 298.90 714.31 299.29
  C 499.39 304.75 323.37 468.10 301.49 681.37
  C 300.96 686.61 300.99 693.03 300.36 698.92
  C 299.63 705.75 300.06 712.27 299.74 719.05
  C 299.35 726.94 300.24 734.77 299.78 742.75
  Q 299.58 746.26 300.94 755.08
  C 301.38 757.97 300.60 760.80 301.08 763.86
  C 302.43 772.61 303.17 781.37 304.93 790.08
  Q 305.32 792.03 306.11 797.91
  C 307.73 810.07 310.86 822.63 313.05 830.97
  Z"
/>
<path fill="#ffa300" d="
  M 1135.39 371.67
  L 1109.18 384.14
  Q 1108.77 384.34 1108.49 383.98
  L 1082.31 351.21
  A 0.86 0.86 0.0 0 1 1082.65 349.88
  Q 1136.68 327.09 1191.07 304.21
  C 1206.38 297.77 1211.56 295.19 1222.15 308.61
  Q 1231.75 320.76 1241.43 332.81
  C 1249.97 343.44 1245.48 349.61 1238.67 359.14
  Q 1203.50 408.32 1168.17 457.50
  A 0.59 0.58 -46.6 0 1 1167.24 457.53
  L 1141.15 424.91
  Q 1140.56 424.18 1141.14 423.44
  L 1158.89 400.86
  A 0.61 0.60 45.5 0 0 1158.89 400.11
  L 1136.32 371.88
  Q 1135.94 371.41 1135.39 371.67
  Z
  M 1178.72 375.76
  C 1188.00 364.33 1196.57 352.52 1207.15 341.98
  A 0.71 0.70 48.9 0 0 1207.21 341.04
  L 1204.74 337.94
  Q 1204.29 337.38 1203.68 337.74
  Q 1184.62 348.71 1164.48 357.58
  A 0.78 0.78 0.0 0 0 1164.19 358.78
  L 1177.77 375.75
  Q 1178.24 376.34 1178.72 375.76
  Z"
/>
<path fill="#101820" d="
  M 313.05 830.97
  C 310.86 822.63 307.73 810.07 306.11 797.91
  Q 305.32 792.03 304.93 790.08
  C 303.17 781.37 302.43 772.61 301.08 763.86
  C 300.60 760.80 301.38 757.97 300.94 755.08
  Q 299.58 746.26 299.78 742.75
  C 300.24 734.77 299.35 726.94 299.74 719.05
  C 300.06 712.27 299.63 705.75 300.36 698.92
  C 300.99 693.03 300.96 686.61 301.49 681.37
  C 323.37 468.10 499.39 304.75 714.31 299.29
  Q 729.68 298.90 745.00 299.96
  Q 745.28 299.98 745.52 299.88
  Q 745.80 299.76 746.11 299.77
  C 993.75 313.36 1176.98 533.39 1144.93 779.60
  C 1114.89 1010.29 901.62 1174.31 671.32 1145.11
  C 499.20 1123.28 357.09 999.22 313.05 830.97
  Z
  M 656.48 864.75
  L 791.48 864.75
  Q 792.00 864.75 792.11 865.26
  L 817.03 971.44
  A 0.73 0.72 -6.5 0 0 817.74 972.00
  L 975.74 972.00
  A 0.33 0.32 82.4 0 0 976.05 971.59
  Q 912.95 747.95 849.78 524.35
  Q 845.83 510.35 843.35 505.46
  C 834.89 488.77 818.76 477.49 799.92 476.00
  Q 795.59 475.65 791.25 475.64
  Q 722.15 475.46 653.06 475.62
  C 631.03 475.68 611.76 488.59 603.20 508.55
  Q 601.75 511.95 597.32 527.63
  Q 582.96 578.45 568.58 629.27
  Q 565.89 638.78 564.49 642.85
  Q 564.33 643.31 564.36 643.79
  Q 564.38 644.27 564.18 644.98
  Q 518.16 807.87 471.96 971.60
  A 0.31 0.31 0.0 0 0 472.26 972.00
  L 630.28 972.00
  Q 630.84 972.00 630.96 971.46
  L 655.91 865.20
  Q 656.02 864.75 656.48 864.75
  Z"
/>
<path fill="#101820" d="
  M 1178.72 375.76
  Q 1178.24 376.34 1177.77 375.75
  L 1164.19 358.78
  A 0.78 0.78 0.0 0 1 1164.48 357.58
  Q 1184.62 348.71 1203.68 337.74
  Q 1204.29 337.38 1204.74 337.94
  L 1207.21 341.04
  A 0.71 0.70 48.9 0 1 1207.15 341.98
  C 1196.57 352.52 1188.00 364.33 1178.72 375.76
  Z"
/>
<path fill="#ffa300" d="
  M 1284.03 556.54
  C 1284.41 559.77 1285.29 563.41 1285.34 566.22
  C 1285.67 584.49 1270.68 593.14 1255.21 597.32
  C 1241.09 601.14 1229.86 598.65 1221.83 586.13
  C 1215.06 575.58 1212.06 567.50 1207.19 553.66
  Q 1197.82 527.05 1189.83 499.98
  Q 1189.65 499.40 1190.23 499.20
  L 1317.26 454.51
  A 0.71 0.70 68.7 0 1 1318.14 454.90
  Q 1329.62 482.42 1339.32 510.93
  C 1343.80 524.11 1350.15 544.70 1341.91 556.30
  C 1334.71 566.45 1313.07 574.67 1301.15 571.50
  C 1293.24 569.39 1288.50 563.46 1285.08 556.24
  A 0.55 0.55 0.0 0 0 1284.03 556.54
  Z
  M 1305.34 502.97
  L 1282.32 511.08
  A 0.58 0.58 0.0 0 0 1281.97 511.82
  L 1287.68 528.05
  A 9.49 9.26 70.6 0 0 1299.57 533.92
  L 1306.21 531.59
  A 9.49 9.26 70.6 0 0 1311.79 519.56
  L 1306.08 503.33
  A 0.58 0.58 0.0 0 0 1305.34 502.97
  Z
  M 1257.81 519.66
  L 1229.70 529.56
  A 0.35 0.35 0.0 0 0 1229.49 530.01
  L 1235.76 547.83
  A 10.77 10.66 70.6 0 0 1249.40 554.45
  L 1258.06 551.40
  A 10.77 10.66 70.6 0 0 1264.53 537.70
  L 1258.25 519.88
  A 0.35 0.35 0.0 0 0 1257.81 519.66
  Z"
/>
<path fill="#ffa300" d="
  M 210.68 551.30
  L 234.69 567.30
  A 0.81 0.80 -63.3 0 1 235.00 568.25
  L 220.29 607.57
  A 0.67 0.67 0.0 0 1 219.26 607.88
  Q 167.69 570.06 115.98 532.02
  C 109.94 527.57 107.82 521.33 110.33 514.26
  Q 116.51 496.91 123.18 479.75
  C 126.39 471.47 131.29 467.77 140.50 468.53
  Q 203.98 473.77 267.43 479.10
  A 0.68 0.67 12.6 0 1 268.01 480.01
  L 253.46 519.02
  A 1.18 1.17 13.5 0 1 252.22 519.77
  L 223.72 516.19
  A 0.63 0.63 0.0 0 0 223.05 516.60
  L 210.39 550.41
  Q 210.19 550.97 210.68 551.30
  Z
  M 146.38 510.13
  C 159.62 517.14 171.65 525.48 183.98 533.55
  A 0.56 0.56 0.0 0 0 184.81 533.28
  L 192.58 512.58
  Q 192.76 512.11 192.26 512.04
  C 177.50 509.92 163.88 508.61 148.30 504.96
  A 0.57 0.57 0.0 0 0 147.63 505.31
  L 146.09 509.34
  A 0.64 0.63 25.2 0 0 146.38 510.13
  Z"
/>
<path fill="#ffa300" d="
  M 655.91 865.20
  L 630.96 971.46
  Q 630.84 972.00 630.28 972.00
  L 472.26 972.00
  A 0.31 0.31 0.0 0 1 471.96 971.60
  Q 518.16 807.87 564.18 644.98
  Q 564.38 644.27 564.36 643.79
  Q 564.33 643.31 564.49 642.85
  Q 565.89 638.78 568.58 629.27
  Q 582.96 578.45 597.32 527.63
  Q 601.75 511.95 603.20 508.55
  C 611.76 488.59 631.03 475.68 653.06 475.62
  Q 722.15 475.46 791.25 475.64
  Q 795.59 475.65 799.92 476.00
  C 818.76 477.49 834.89 488.77 843.35 505.46
  Q 845.83 510.35 849.78 524.35
  Q 912.95 747.95 976.05 971.59
  A 0.33 0.32 82.4 0 1 975.74 972.00
  L 817.74 972.00
  A 0.73 0.72 -6.5 0 1 817.03 971.44
  L 792.11 865.26
  Q 792.00 864.75 791.48 864.75
  L 656.48 864.75
  Q 656.02 864.75 655.91 865.20
  Z
  M 735.50 606.81
  Q 734.70 599.81 733.68 592.74
  Q 733.58 592.07 732.91 592.07
  L 714.85 592.03
  A 0.74 0.73 3.5 0 0 714.12 592.67
  Q 710.82 619.82 708.61 631.92
  C 708.07 634.88 708.06 637.78 707.57 639.99
  Q 694.62 697.51 681.32 754.67
  A 0.68 0.68 0.0 0 0 681.98 755.50
  L 766.26 755.50
  A 0.42 0.42 0.0 0 0 766.67 754.99
  Q 756.51 710.50 746.31 666.23
  C 741.82 646.69 737.77 626.74 735.50 606.81
  Z"
/>
<path fill="#101820" d="
  M 1305.34 502.97
  A 0.58 0.58 0.0 0 1 1306.08 503.33
  L 1311.79 519.56
  A 9.49 9.26 70.6 0 1 1306.21 531.59
  L 1299.57 533.92
  A 9.49 9.26 70.6 0 1 1287.68 528.05
  L 1281.97 511.82
  A 0.58 0.58 0.0 0 1 1282.32 511.08
  L 1305.34 502.97
  Z"
/>
<path fill="#101820" d="
  M 146.38 510.13
  A 0.64 0.63 25.2 0 1 146.09 509.34
  L 147.63 505.31
  A 0.57 0.57 0.0 0 1 148.30 504.96
  C 163.88 508.61 177.50 509.92 192.26 512.04
  Q 192.76 512.11 192.58 512.58
  L 184.81 533.28
  A 0.56 0.56 0.0 0 1 183.98 533.55
  C 171.65 525.48 159.62 517.14 146.38 510.13
  Z"
/>
<path fill="#101820" d="
  M 1257.81 519.66
  A 0.35 0.35 0.0 0 1 1258.25 519.88
  L 1264.53 537.70
  A 10.77 10.66 70.6 0 1 1258.06 551.40
  L 1249.40 554.45
  A 10.77 10.66 70.6 0 1 1235.76 547.83
  L 1229.49 530.01
  A 0.35 0.35 0.0 0 1 1229.70 529.56
  L 1257.81 519.66
  Z"
/>
<path fill="#101820" d="
  M 735.50 606.81
  C 737.77 626.74 741.82 646.69 746.31 666.23
  Q 756.51 710.50 766.67 754.99
  A 0.42 0.42 0.0 0 1 766.26 755.50
  L 681.98 755.50
  A 0.68 0.68 0.0 0 1 681.32 754.67
  Q 694.62 697.51 707.57 639.99
  C 708.06 637.78 708.07 634.88 708.61 631.92
  Q 710.82 619.82 714.12 592.67
  A 0.74 0.73 3.5 0 1 714.85 592.03
  L 732.91 592.07
  Q 733.58 592.07 733.68 592.74
  Q 734.70 599.81 735.50 606.81
  Z"
/>
<path fill="#ffa300" d="
  M 1425.85 751.99
  Q 1426.56 753.75 1426.20 755.74
  C 1424.89 762.97 1425.02 771.71 1424.49 777.40
  Q 1422.55 797.88 1420.72 812.50
  C 1388.84 1066.45 1218.96 1283.07 982.18 1376.92
  C 709.58 1484.97 397.44 1411.16 201.46 1192.55
  C 88.22 1066.24 24.55 904.99 21.92 735.10
  Q 21.91 734.25 22.76 734.25
  L 255.22 734.25
  A 0.60 0.60 0.0 0 1 255.82 734.84
  Q 256.50 759.15 259.31 783.49
  Q 272.43 897.43 337.68 989.57
  C 410.14 1091.90 519.26 1166.36 644.18 1185.80
  C 687.74 1192.57 732.30 1193.94 775.79 1189.38
  Q 799.96 1186.84 823.76 1182.12
  C 887.28 1169.52 947.38 1141.92 999.19 1103.18
  C 1045.40 1068.62 1086.49 1026.07 1118.28 977.90
  Q 1170.24 899.19 1185.56 805.47
  Q 1191.31 770.32 1192.15 734.84
  A 0.63 0.63 0.0 0 1 1192.78 734.23
  L 1425.44 734.29
  A 0.64 0.63 0.9 0 1 1426.08 734.94
  L 1425.69 751.14
  Q 1425.68 751.58 1425.85 751.99
  Z
  M 1281.47 889.05
  Q 1281.09 889.04 1280.92 888.74
  C 1283.16 874.75 1279.83 866.01 1266.80 859.49
  C 1250.21 851.18 1232.32 848.85 1221.06 867.06
  C 1214.56 877.59 1211.23 887.15 1206.31 901.19
  Q 1198.09 924.63 1191.25 948.43
  A 0.34 0.32 -72.8 0 0 1191.45 948.83
  L 1318.73 993.57
  Q 1319.32 993.78 1319.56 993.20
  Q 1333.40 960.13 1344.53 926.05
  C 1349.77 910.00 1353.38 890.71 1336.36 880.18
  C 1317.83 868.72 1294.02 864.95 1282.65 888.38
  Q 1282.46 888.77 1282.19 888.90
  Q 1281.87 889.06 1281.47 889.05
  Z
  M 149.21 958.40
  A 0.93 0.93 0.0 0 1 148.86 959.50
  L 124.86 975.53
  Q 124.40 975.84 124.59 976.36
  L 139.46 1016.01
  A 0.46 0.45 61.2 0 0 140.16 1016.22
  Q 190.96 978.96 241.69 941.65
  C 249.22 936.12 252.34 930.77 248.93 921.30
  Q 239.75 895.87 235.83 886.18
  C 232.08 876.91 225.07 876.20 215.44 877.01
  Q 153.51 882.21 91.95 887.32
  Q 91.29 887.37 91.52 887.99
  L 106.34 927.64
  A 0.60 0.59 75.6 0 0 106.97 928.02
  L 135.46 924.43
  A 1.22 1.21 75.9 0 1 136.76 925.21
  L 149.21 958.40
  Z
  M 282.41 1078.81
  L 278.56 1074.16
  Q 278.14 1073.64 278.72 1073.30
  C 292.57 1065.35 305.70 1052.73 318.15 1042.07
  Q 318.57 1041.70 318.21 1041.27
  L 291.34 1009.53
  Q 291.00 1009.13 290.59 1009.47
  L 187.76 1096.61
  Q 187.33 1096.97 187.69 1097.40
  L 214.47 1128.98
  A 0.77 0.77 0.0 0 0 215.55 1129.07
  Q 230.89 1116.05 246.54 1102.78
  Q 251.66 1098.43 256.88 1092.26
  Q 257.27 1091.80 257.66 1092.26
  L 261.25 1096.49
  A 1.31 1.31 0.0 0 1 261.46 1097.86
  L 237.37 1155.09
  A 1.08 1.08 0.0 0 0 237.54 1156.21
  L 267.37 1191.40
  A 0.37 0.37 0.0 0 0 267.99 1191.29
  Q 278.97 1162.03 289.72 1132.92
  C 292.43 1125.60 293.09 1119.63 291.94 1112.39
  A 0.50 0.50 0.0 0 1 292.63 1111.85
  Q 299.11 1114.54 306.28 1113.36
  Q 337.90 1108.15 369.46 1102.72
  A 0.42 0.42 0.0 0 0 369.71 1102.03
  L 340.85 1067.98
  A 0.86 0.85 -25.8 0 0 340.01 1067.69
  L 283.42 1079.17
  A 1.05 1.05 0.0 0 1 282.41 1078.81
  Z
  M 1197.84 1124.92
  L 1219.98 1097.24
  A 1.55 1.55 0.0 0 1 1221.86 1096.81
  L 1247.53 1108.96
  A 0.62 0.61 31.2 0 0 1248.28 1108.78
  L 1274.80 1075.56
  Q 1275.11 1075.17 1274.65 1074.98
  Q 1215.61 1050.03 1156.42 1025.43
  Q 1144.93 1020.66 1136.88 1030.65
  Q 1126.03 1044.11 1115.29 1057.67
  C 1108.65 1066.06 1109.24 1071.64 1115.55 1080.47
  Q 1152.08 1131.62 1188.70 1182.58
  A 0.40 0.39 -43.5 0 0 1189.33 1182.59
  L 1215.79 1149.45
  Q 1216.12 1149.03 1215.80 1148.61
  L 1197.84 1125.75
  Q 1197.51 1125.33 1197.84 1124.92
  Z
  M 328.48 1244.01
  L 365.21 1266.26
  Q 365.58 1266.49 365.88 1266.18
  L 386.35 1245.31
  Q 386.65 1245.01 387.01 1245.23
  L 418.07 1264.01
  Q 418.51 1264.27 418.35 1264.75
  L 409.31 1292.35
  Q 409.14 1292.88 409.62 1293.17
  L 445.83 1315.18
  Q 446.36 1315.50 446.53 1314.90
  Q 462.69 1256.48 478.91 1197.84
  C 482.40 1185.20 483.49 1179.18 471.15 1171.63
  Q 456.89 1162.92 442.55 1154.37
  C 433.55 1149.00 427.86 1151.18 420.36 1158.15
  Q 374.34 1200.97 328.46 1243.85
  A 0.10 0.10 0.0 0 0 328.48 1244.01
  Z
  M 1029.18 1267.30
  C 1039.41 1282.56 1057.15 1285.90 1072.53 1275.76
  C 1091.04 1263.53 1109.67 1250.77 1126.59 1236.36
  A 0.60 0.60 0.0 0 0 1126.67 1235.54
  L 1107.95 1211.07
  Q 1107.61 1210.62 1107.14 1210.94
  Q 1089.84 1222.66 1072.45 1234.24
  C 1067.18 1237.75 1062.49 1240.15 1058.31 1233.94
  Q 1032.23 1195.14 1006.37 1156.58
  A 0.69 0.69 0.0 0 0 1005.41 1156.39
  L 970.99 1179.52
  A 0.51 0.50 -34.3 0 0 970.85 1180.23
  Q 1000.01 1223.78 1029.18 1267.30
  Z
  M 596.49 1321.32
  C 597.11 1342.72 612.73 1338.94 626.74 1342.07
  C 635.41 1344.01 645.33 1345.17 649.47 1335.44
  Q 652.15 1329.14 660.08 1307.14
  Q 660.29 1306.57 660.73 1304.81
  C 661.19 1302.94 662.60 1300.57 663.07 1299.23
  Q 666.01 1290.89 669.31 1282.69
  Q 669.47 1282.31 669.32 1281.92
  C 669.18 1281.53 669.24 1281.09 669.48 1280.70
  C 672.26 1276.37 672.04 1271.98 674.91 1267.59
  Q 675.13 1267.25 675.53 1267.17
  Q 677.44 1266.80 678.02 1268.00
  Q 678.38 1268.72 678.03 1270.46
  C 677.22 1274.58 676.92 1278.86 676.17 1282.82
  C 674.49 1291.66 674.20 1300.93 672.95 1309.31
  Q 672.09 1315.05 671.32 1320.81
  C 671.01 1323.10 670.11 1327.44 670.02 1330.78
  Q 669.88 1335.90 669.49 1338.28
  Q 667.83 1348.48 666.40 1358.71
  C 665.94 1362.05 666.19 1366.12 665.32 1369.92
  Q 665.20 1370.44 665.73 1370.53
  C 671.80 1371.53 677.40 1372.74 683.79 1373.51
  Q 692.94 1374.60 701.79 1376.84
  A 1.18 1.18 0.0 0 0 703.26 1375.71
  Q 703.29 1372.73 703.71 1369.50
  Q 711.08 1312.68 718.12 1255.82
  C 719.38 1245.66 713.92 1241.29 704.77 1239.59
  Q 688.56 1236.58 672.25 1234.12
  C 662.35 1232.62 654.48 1232.74 650.78 1242.81
  Q 645.86 1256.20 632.37 1296.29
  Q 629.37 1305.20 627.07 1314.31
  Q 626.73 1315.64 625.55 1315.05
  A 0.99 0.98 15.9 0 1 625.02 1314.10
  C 626.73 1290.88 625.67 1267.61 625.27 1244.19
  C 625.09 1233.91 623.78 1226.35 612.92 1224.31
  Q 604.85 1222.80 580.01 1218.79
  C 569.27 1217.06 560.84 1216.97 558.30 1229.08
  Q 549.41 1271.31 533.65 1348.29
  Q 533.54 1348.85 534.10 1348.93
  L 570.94 1354.65
  Q 571.45 1354.73 571.55 1354.23
  L 591.46 1254.35
  A 1.72 1.72 0.0 0 1 594.86 1254.65
  Q 595.52 1287.51 596.49 1321.32
  Z
  M 804.54 1372.73
  L 845.12 1366.42
  A 0.54 0.54 0.0 0 0 845.56 1365.81
  L 824.91 1232.92
  A 0.80 0.80 0.0 0 0 824.00 1232.25
  L 783.51 1238.54
  A 0.72 0.51 -23.3 0 0 782.92 1239.50
  Q 783.15 1239.69 783.28 1240.50
  Q 792.04 1296.99 800.94 1353.47
  Q 802.42 1362.88 803.71 1372.11
  A 0.73 0.73 0.0 0 0 804.54 1372.73
  Z"
/>
<path fill="#101820" d="
  M 1280.92 888.74
  Q 1280.68 888.97 1280.73 889.38
  Q 1280.78 889.72 1281.06 889.90
  Q 1281.44 890.15 1281.84 889.95
  Q 1282.45 889.65 1281.87 889.30
  L 1281.47 889.05
  Q 1281.87 889.06 1282.19 888.90
  Q 1282.46 888.77 1282.65 888.38
  C 1294.02 864.95 1317.83 868.72 1336.36 880.18
  C 1353.38 890.71 1349.77 910.00 1344.53 926.05
  Q 1333.40 960.13 1319.56 993.20
  Q 1319.32 993.78 1318.73 993.57
  L 1191.45 948.83
  A 0.34 0.32 -72.8 0 1 1191.25 948.43
  Q 1198.09 924.63 1206.31 901.19
  C 1211.23 887.15 1214.56 877.59 1221.06 867.06
  C 1232.32 848.85 1250.21 851.18 1266.80 859.49
  C 1279.83 866.01 1283.16 874.75 1280.92 888.74
  Z
  M 1231.36 918.56
  L 1254.45 926.74
  A 0.52 0.52 0.0 0 0 1255.11 926.42
  L 1260.91 910.07
  A 9.37 9.14 -70.5 0 0 1255.42 898.18
  L 1248.57 895.76
  A 9.37 9.14 -70.5 0 0 1236.83 901.54
  L 1231.04 917.90
  A 0.52 0.52 0.0 0 0 1231.36 918.56
  Z
  M 1278.97 935.27
  L 1307.00 945.20
  A 0.36 0.36 0.0 0 0 1307.46 944.98
  L 1313.70 927.36
  A 10.89 10.41 -70.5 0 0 1307.52 913.62
  L 1298.43 910.40
  A 10.89 10.41 -70.5 0 0 1284.99 917.19
  L 1278.75 934.81
  A 0.36 0.36 0.0 0 0 1278.97 935.27
  Z"
/>
<path fill="#101820" d="
  M 149.21 958.40
  L 136.76 925.21
  A 1.22 1.21 75.9 0 0 135.46 924.43
  L 106.97 928.02
  A 0.60 0.59 75.6 0 1 106.34 927.64
  L 91.52 887.99
  Q 91.29 887.37 91.95 887.32
  Q 153.51 882.21 215.44 877.01
  C 225.07 876.20 232.08 876.91 235.83 886.18
  Q 239.75 895.87 248.93 921.30
  C 252.34 930.77 249.22 936.12 241.69 941.65
  Q 190.96 978.96 140.16 1016.22
  A 0.46 0.45 61.2 0 1 139.46 1016.01
  L 124.59 976.36
  Q 124.40 975.84 124.86 975.53
  L 148.86 959.50
  A 0.93 0.93 0.0 0 0 149.21 958.40
  Z
  M 213.54 917.49
  L 212.12 913.74
  A 0.90 0.88 -16.7 0 0 211.08 913.19
  C 196.75 916.64 182.35 918.13 167.94 920.12
  A 0.84 0.84 0.0 0 0 167.27 921.25
  L 174.76 941.26
  A 0.73 0.73 0.0 0 0 175.85 941.61
  C 188.04 933.48 200.21 925.10 213.24 918.27
  A 0.64 0.64 0.0 0 0 213.54 917.49
  Z"
/>
<path fill="#ffa300" d="
  M 1231.36 918.56
  A 0.52 0.52 0.0 0 1 1231.04 917.90
  L 1236.83 901.54
  A 9.37 9.14 -70.5 0 1 1248.57 895.76
  L 1255.42 898.18
  A 9.37 9.14 -70.5 0 1 1260.91 910.07
  L 1255.11 926.42
  A 0.52 0.52 0.0 0 1 1254.45 926.74
  L 1231.36 918.56
  Z"
/>
<path fill="#ffa300" d="
  M 1278.97 935.27
  A 0.36 0.36 0.0 0 1 1278.75 934.81
  L 1284.99 917.19
  A 10.89 10.41 -70.5 0 1 1298.43 910.40
  L 1307.52 913.62
  A 10.89 10.41 -70.5 0 1 1313.70 927.36
  L 1307.46 944.98
  A 0.36 0.36 0.0 0 1 1307.00 945.20
  L 1278.97 935.27
  Z"
/>
<path fill="#ffa300" d="
  M 213.54 917.49
  A 0.64 0.64 0.0 0 1 213.24 918.27
  C 200.21 925.10 188.04 933.48 175.85 941.61
  A 0.73 0.73 0.0 0 1 174.76 941.26
  L 167.27 921.25
  A 0.84 0.84 0.0 0 1 167.94 920.12
  C 182.35 918.13 196.75 916.64 211.08 913.19
  A 0.90 0.88 -16.7 0 1 212.12 913.74
  L 213.54 917.49
  Z"
/>
<path fill="#101820" d="
  M 283.42 1079.17
  L 340.01 1067.69
  A 0.86 0.85 -25.8 0 1 340.85 1067.98
  L 369.71 1102.03
  A 0.42 0.42 0.0 0 1 369.46 1102.72
  Q 337.90 1108.15 306.28 1113.36
  Q 299.11 1114.54 292.63 1111.85
  A 0.50 0.50 0.0 0 0 291.94 1112.39
  C 293.09 1119.63 292.43 1125.60 289.72 1132.92
  Q 278.97 1162.03 267.99 1191.29
  A 0.37 0.37 0.0 0 1 267.37 1191.40
  L 237.54 1156.21
  A 1.08 1.08 0.0 0 1 237.37 1155.09
  L 261.46 1097.86
  A 1.31 1.31 0.0 0 0 261.25 1096.49
  L 257.66 1092.26
  Q 257.27 1091.80 256.88 1092.26
  Q 251.66 1098.43 246.54 1102.78
  Q 230.89 1116.05 215.55 1129.07
  A 0.77 0.77 0.0 0 1 214.47 1128.98
  L 187.69 1097.40
  Q 187.33 1096.97 187.76 1096.61
  L 290.59 1009.47
  Q 291.00 1009.13 291.34 1009.53
  L 318.21 1041.27
  Q 318.57 1041.70 318.15 1042.07
  C 305.70 1052.73 292.57 1065.35 278.72 1073.30
  Q 278.14 1073.64 278.56 1074.16
  L 282.41 1078.81
  A 1.05 1.05 0.0 0 0 283.42 1079.17
  Z"
/>
<path fill="#101820" d="
  M 1197.84 1125.75
  L 1215.80 1148.61
  Q 1216.12 1149.03 1215.79 1149.45
  L 1189.33 1182.59
  A 0.40 0.39 -43.5 0 1 1188.70 1182.58
  Q 1152.08 1131.62 1115.55 1080.47
  C 1109.24 1071.64 1108.65 1066.06 1115.29 1057.67
  Q 1126.03 1044.11 1136.88 1030.65
  Q 1144.93 1020.66 1156.42 1025.43
  Q 1215.61 1050.03 1274.65 1074.98
  Q 1275.11 1075.17 1274.80 1075.56
  L 1248.28 1108.78
  A 0.62 0.61 31.2 0 1 1247.53 1108.96
  L 1221.86 1096.81
  A 1.55 1.55 0.0 0 0 1219.98 1097.24
  L 1197.84 1124.92
  Q 1197.51 1125.33 1197.84 1125.75
  Z
  M 1192.60 1082.61
  Q 1172.31 1073.62 1153.00 1062.70
  Q 1152.37 1062.34 1151.91 1062.91
  L 1149.62 1065.79
  Q 1149.26 1066.24 1149.66 1066.67
  Q 1164.52 1082.81 1177.60 1100.44
  A 0.89 0.89 0.0 0 0 1179.01 1100.47
  L 1192.77 1083.30
  A 0.45 0.44 31.6 0 0 1192.60 1082.61
  Z"
/>
<path fill="#ffa300" d="
  M 1192.60 1082.61
  A 0.45 0.44 31.6 0 1 1192.77 1083.30
  L 1179.01 1100.47
  A 0.89 0.89 0.0 0 1 1177.60 1100.44
  Q 1164.52 1082.81 1149.66 1066.67
  Q 1149.26 1066.24 1149.62 1065.79
  L 1151.91 1062.91
  Q 1152.37 1062.34 1153.00 1062.70
  Q 1172.31 1073.62 1192.60 1082.61
  Z"
/>
<path fill="#101820" d="
  M 328.48 1244.01
  A 0.10 0.10 0.0 0 1 328.46 1243.85
  Q 374.34 1200.97 420.36 1158.15
  C 427.86 1151.18 433.55 1149.00 442.55 1154.37
  Q 456.89 1162.92 471.15 1171.63
  C 483.49 1179.18 482.40 1185.20 478.91 1197.84
  Q 462.69 1256.48 446.53 1314.90
  Q 446.36 1315.50 445.83 1315.18
  L 409.62 1293.17
  Q 409.14 1292.88 409.31 1292.35
  L 418.35 1264.75
  Q 418.51 1264.27 418.07 1264.01
  L 387.01 1245.23
  Q 386.65 1245.01 386.35 1245.31
  L 365.88 1266.18
  Q 365.58 1266.49 365.21 1266.26
  L 328.48 1244.01
  Z
  M 408.77 1223.30
  L 427.24 1234.52
  A 0.91 0.91 0.0 0 0 428.58 1234.00
  Q 434.73 1212.94 443.17 1192.69
  Q 443.38 1192.18 442.90 1191.88
  L 439.50 1189.74
  Q 439.04 1189.45 438.69 1189.86
  C 428.94 1201.26 418.99 1211.81 408.66 1222.45
  A 0.55 0.54 -52.7 0 0 408.77 1223.30
  Z"
/>
<path fill="#101820" d="
  M 1072.53 1275.76
  C 1057.15 1285.90 1039.41 1282.56 1029.18 1267.30
  Q 1000.01 1223.78 970.85 1180.23
  A 0.51 0.50 -34.3 0 1 970.99 1179.52
  L 1005.41 1156.39
  A 0.69 0.69 0.0 0 1 1006.37 1156.58
  Q 1032.23 1195.14 1058.31 1233.94
  C 1062.49 1240.15 1067.18 1237.75 1072.45 1234.24
  Q 1089.84 1222.66 1107.14 1210.94
  Q 1107.61 1210.62 1107.95 1211.07
  L 1126.67 1235.54
  A 0.60 0.60 0.0 0 1 1126.59 1236.36
  C 1109.67 1250.77 1091.04 1263.53 1072.53 1275.76
  Z"
/>
<path fill="#ffa300" d="
  M 408.77 1223.30
  A 0.55 0.54 -52.7 0 1 408.66 1222.45
  C 418.99 1211.81 428.94 1201.26 438.69 1189.86
  Q 439.04 1189.45 439.50 1189.74
  L 442.90 1191.88
  Q 443.38 1192.18 443.17 1192.69
  Q 434.73 1212.94 428.58 1234.00
  A 0.91 0.91 0.0 0 1 427.24 1234.52
  L 408.77 1223.30
  Z"
/>
<path fill="#101820" d="
  M 626.74 1342.07
  C 612.73 1338.94 597.11 1342.72 596.49 1321.32
  Q 595.52 1287.51 594.86 1254.65
  A 1.72 1.72 0.0 0 0 591.46 1254.35
  L 571.55 1354.23
  Q 571.45 1354.73 570.94 1354.65
  L 534.10 1348.93
  Q 533.54 1348.85 533.65 1348.29
  Q 549.41 1271.31 558.30 1229.08
  C 560.84 1216.97 569.27 1217.06 580.01 1218.79
  Q 604.85 1222.80 612.92 1224.31
  C 623.78 1226.35 625.09 1233.91 625.27 1244.19
  C 625.67 1267.61 626.73 1290.88 625.02 1314.10
  A 0.99 0.98 15.9 0 0 625.55 1315.05
  Q 626.73 1315.64 627.07 1314.31
  Q 629.37 1305.20 632.37 1296.29
  Q 645.86 1256.20 650.78 1242.81
  C 654.48 1232.74 662.35 1232.62 672.25 1234.12
  Q 688.56 1236.58 704.77 1239.59
  C 713.92 1241.29 719.38 1245.66 718.12 1255.82
  Q 711.08 1312.68 703.71 1369.50
  Q 703.29 1372.73 703.26 1375.71
  A 1.18 1.18 0.0 0 1 701.79 1376.84
  Q 692.94 1374.60 683.79 1373.51
  C 677.40 1372.74 671.80 1371.53 665.73 1370.53
  Q 665.20 1370.44 665.32 1369.92
  C 666.19 1366.12 665.94 1362.05 666.40 1358.71
  Q 667.83 1348.48 669.49 1338.28
  Q 669.88 1335.90 670.02 1330.78
  C 670.11 1327.44 671.01 1323.10 671.32 1320.81
  Q 672.09 1315.05 672.95 1309.31
  C 674.20 1300.93 674.49 1291.66 676.17 1282.82
  C 676.92 1278.86 677.22 1274.58 678.03 1270.46
  Q 678.38 1268.72 678.02 1268.00
  Q 677.44 1266.80 675.53 1267.17
  Q 675.13 1267.25 674.91 1267.59
  C 672.04 1271.98 672.26 1276.37 669.48 1280.70
  C 669.24 1281.09 669.18 1281.53 669.32 1281.92
  Q 669.47 1282.31 669.31 1282.69
  Q 666.01 1290.89 663.07 1299.23
  C 662.60 1300.57 661.19 1302.94 660.73 1304.81
  Q 660.29 1306.57 660.08 1307.14
  Q 652.15 1329.14 649.47 1335.44
  C 645.33 1345.17 635.41 1344.01 626.74 1342.07
  Z"
/>
<path fill="#101820" d="
  M 804.54 1372.73
  A 0.73 0.73 0.0 0 1 803.71 1372.11
  Q 802.42 1362.88 800.94 1353.47
  Q 792.04 1296.99 783.28 1240.50
  Q 783.15 1239.69 782.92 1239.50
  A 0.72 0.51 -23.3 0 1 783.51 1238.54
  L 824.00 1232.25
  A 0.80 0.80 0.0 0 1 824.91 1232.92
  L 845.56 1365.81
  A 0.54 0.54 0.0 0 1 845.12 1366.42
  L 804.54 1372.73
  Z"
/>
</svg>
