<?xml version="1.0" encoding="UTF-8" standalone="no"?>
<!DOCTYPE svg PUBLIC "-//W3C//DTD SVG 1.1//EN" "http://www.w3.org/Graphics/SVG/1.1/DTD/svg11.dtd">
<svg xmlns="http://www.w3.org/2000/svg" version="1.1" viewBox="0.00 0.00 1448.00 1448.00">
<path fill="#101820" d="
  M 1447.45 723.79
  A 723.44 723.44 0.0 0 1 724.01 1447.23
  A 723.44 723.44 0.0 0 1 0.57 723.79
  A 723.44 723.44 0.0 0 1 724.01 0.35
  A 723.44 723.44 0.0 0 1 1447.45 723.79
  Z
  M 583.16 125.21
  Q 584.17 126.93 585.04 129.28
  Q 595.87 158.58 606.81 187.86
  C 609.46 194.95 612.07 199.97 619.55 201.00
  C 624.68 201.70 635.36 199.39 642.30 198.12
  C 654.54 195.88 661.29 194.69 661.69 180.12
  Q 662.60 146.06 663.48 112.00
  Q 663.50 111.39 664.07 111.18
  L 665.26 110.73
  A 1.02 1.01 74.0 0 1 666.60 111.48
  L 687.44 212.10
  A 0.53 0.53 0.0 0 0 688.04 212.52
  L 724.75 206.44
  A 0.66 0.65 -10.5 0 0 725.29 205.66
  Q 713.22 146.93 701.02 88.45
  C 699.16 79.49 694.41 73.83 684.43 75.43
  Q 667.64 78.13 650.89 80.96
  C 640.68 82.69 633.22 85.10 632.74 96.25
  C 632.00 113.26 631.86 143.37 633.30 171.72
  A 0.98 0.98 0.0 0 1 631.37 172.00
  C 625.85 149.32 616.88 127.11 608.89 105.18
  C 605.15 94.91 601.38 89.24 589.67 91.13
  Q 573.41 93.77 557.15 96.50
  C 546.20 98.35 539.30 101.42 540.86 113.94
  Q 548.37 173.97 555.97 233.98
  Q 556.03 234.42 556.47 234.35
  L 592.96 228.32
  A 0.99 0.99 0.0 0 0 593.79 227.21
  L 580.32 126.19
  A 1.53 1.53 0.0 0 1 583.16 125.21
  Z
  M 845.3449 83.0254
  A 0.26 0.26 0.0 0 0 845.1277 82.7287
  L 803.8000 76.3308
  A 0.26 0.26 0.0 0 0 803.5033 76.5480
  L 782.7951 210.3146
  A 0.26 0.26 0.0 0 0 783.0123 210.6113
  L 824.3400 217.0092
  A 0.26 0.26 0.0 0 0 824.6367 216.7920
  L 845.3449 83.0254
  Z
  M 982.30 252.76
  C 978.39 264.98 982.53 278.08 993.78 285.96
  Q 1021.92 305.68 1051.79 322.17
  A 0.95 0.94 -60.1 0 0 1053.06 321.82
  L 1068.38 295.61
  A 1.02 1.01 -58.0 0 0 1068.07 294.25
  Q 1049.80 282.20 1031.54 269.74
  C 1023.97 264.57 1026.85 260.64 1031.21 254.11
  Q 1055.95 217.15 1080.61 180.49
  A 0.53 0.53 0.0 0 0 1080.47 179.75
  L 1045.91 156.62
  A 0.66 0.66 0.0 0 0 1044.99 156.80
  Q 1016.96 198.58 988.91 240.42
  Q 983.81 248.04 982.30 252.76
  Z
  M 517.00 249.14
  C 485.93 219.86 454.84 190.72 423.44 161.89
  C 415.64 154.73 409.73 156.17 400.92 161.49
  Q 386.07 170.47 371.29 179.53
  C 363.17 184.51 363.92 192.18 366.35 200.97
  Q 382.85 260.74 399.38 320.45
  A 0.61 0.61 0.0 0 0 400.28 320.81
  L 435.96 299.18
  Q 436.80 298.67 436.50 297.73
  L 427.82 271.01
  A 1.35 1.34 65.5 0 1 428.40 269.44
  L 458.24 251.34
  A 1.65 1.64 52.1 0 1 460.28 251.60
  L 479.81 271.66
  Q 480.39 272.25 481.10 271.82
  L 516.90 250.10
  A 0.61 0.60 -39.3 0 0 517.00 249.14
  Z
  M 276.00 370.87
  L 279.84 366.42
  Q 280.20 366.00 280.73 366.13
  L 341.61 380.66
  Q 342.02 380.76 342.30 380.43
  L 372.16 345.16
  A 0.50 0.50 0.0 0 0 371.87 344.35
  Q 341.89 338.56 311.87 332.79
  C 303.59 331.19 297.60 331.10 290.23 333.72
  A 0.50 0.50 0.0 0 1 289.58 333.14
  C 291.28 325.81 289.62 321.33 286.83 313.22
  Q 277.46 286.09 267.98 259.01
  A 0.51 0.51 0.0 0 0 267.11 258.85
  L 238.44 292.75
  A 1.03 1.01 54.8 0 0 238.27 293.78
  L 258.87 347.61
  Q 259.09 348.20 258.68 348.67
  L 254.69 353.33
  Q 254.27 353.82 253.86 353.31
  Q 248.59 346.64 240.51 339.75
  Q 228.51 329.50 216.48 319.33
  A 0.42 0.41 40.7 0 0 215.89 319.37
  L 188.91 351.17
  A 0.60 0.60 0.0 0 0 188.98 352.02
  L 291.32 438.76
  A 1.17 1.17 0.0 0 0 292.97 438.63
  L 319.27 407.55
  Q 319.87 406.84 319.16 406.23
  Q 302.37 392.08 285.24 377.68
  C 282.47 375.36 279.19 373.56 276.12 371.68
  A 0.54 0.54 0.0 0 1 276.00 370.87
  Z
  M 1164.30 642.33
  C 1144.88 525.40 1073.66 422.73 977.94 355.05
  Q 888.44 291.77 778.51 279.70
  C 683.50 269.28 588.28 285.31 504.93 333.02
  Q 459.54 358.99 417.87 398.13
  C 346.57 465.11 298.20 550.40 282.93 647.43
  C 266.04 754.73 283.90 864.98 341.83 957.59
  C 367.13 998.04 399.40 1034.45 435.93 1065.82
  Q 541.87 1156.79 681.25 1168.91
  C 791.77 1178.52 898.77 1152.21 987.95 1085.21
  Q 1057.97 1032.60 1105.17 959.19
  C 1165.21 865.82 1182.29 750.72 1164.30 642.33
  Z
  M 1136.35 371.88
  L 1158.82 400.05
  A 0.71 0.70 -45.4 0 1 1158.82 400.92
  L 1141.02 423.55
  A 0.99 0.98 -45.3 0 0 1141.02 424.76
  L 1167.42 457.82
  A 0.40 0.39 43.5 0 0 1168.05 457.81
  Q 1203.76 407.90 1239.58 357.93
  C 1245.83 349.20 1249.38 342.73 1242.23 333.75
  Q 1231.48 320.25 1220.67 306.80
  C 1214.69 299.36 1209.07 296.65 1199.77 300.56
  Q 1140.99 325.28 1082.31 350.00
  A 0.62 0.61 -31.0 0 0 1082.07 350.95
  L 1108.43 383.96
  Q 1108.77 384.39 1109.27 384.16
  L 1135.44 371.67
  A 0.76 0.76 0.0 0 1 1136.35 371.88
  Z
  M 1284.01 556.57
  A 0.55 0.55 0.0 0 1 1285.05 556.24
  C 1288.67 563.47 1292.95 569.33 1301.03 571.48
  C 1311.21 574.19 1324.97 569.12 1334.04 563.55
  C 1351.69 552.69 1346.02 531.05 1340.67 515.03
  Q 1330.68 485.08 1318.25 455.04
  Q 1317.94 454.30 1317.19 454.56
  L 1190.19 499.19
  A 0.64 0.64 0.0 0 0 1189.79 499.97
  Q 1197.22 525.01 1205.83 549.82
  C 1210.94 564.55 1216.86 584.88 1229.31 594.47
  C 1242.08 604.31 1263.40 596.39 1275.07 588.09
  C 1286.41 580.02 1285.87 569.06 1284.01 556.57
  Z
  M 267.78 479.09
  Q 203.32 473.76 140.74 468.50
  Q 127.19 467.36 123.13 479.43
  C 119.78 489.40 115.74 499.23 112.08 509.10
  C 108.54 518.63 107.28 525.57 115.86 531.88
  Q 167.53 569.93 219.13 607.84
  A 0.81 0.81 0.0 0 0 220.37 607.47
  L 234.97 568.41
  A 1.00 0.99 27.2 0 0 234.59 567.23
  L 211.16 551.60
  A 1.51 1.50 -62.9 0 1 210.59 549.82
  L 222.99 516.78
  A 0.92 0.92 0.0 0 1 223.98 516.19
  L 251.99 519.77
  A 1.49 1.48 13.8 0 0 253.57 518.82
  L 268.21 479.76
  A 0.50 0.50 0.0 0 0 267.78 479.09
  Z
  M 1007.19 1366.37
  C 1254.06 1257.76 1417.69 1015.70 1425.79 745.92
  C 1425.88 743.21 1425.76 738.83 1426.20 735.31
  A 0.95 0.94 3.5 0 0 1425.26 734.25
  L 1192.98 734.25
  A 1.01 1.00 -89.4 0 0 1191.98 735.24
  Q 1189.06 899.23 1083.95 1023.44
  C 1010.94 1109.70 914.92 1168.41 802.48 1185.86
  Q 716.60 1199.18 633.31 1183.94
  C 515.62 1162.39 414.42 1093.16 343.57 997.69
  C 286.77 921.14 257.63 830.48 255.92 735.17
  A 0.93 0.93 0.0 0 0 254.99 734.25
  L 22.72 734.25
  Q 21.91 734.25 21.92 735.06
  C 27.76 1106.29 323.12 1409.78 693.68 1425.30
  Q 857.61 1432.17 1007.19 1366.37
  Z"
/>
<path fill="#101820" d="
  M 437.29 228.61
  Q 437.14 229.23 436.53 229.60
  Q 427.65 235.01 418.38 240.38
  Q 417.89 240.66 417.71 240.13
  C 412.88 226.10 408.78 212.18 402.65 198.56
  A 0.80 0.80 0.0 0 1 402.94 197.57
  L 406.19 195.48
  A 0.89 0.88 54.1 0 1 407.35 195.67
  C 416.61 207.08 426.90 217.48 437.05 227.76
  Q 437.40 228.12 437.29 228.61
  Z"
/>
<path fill="#101820" d="
  M 1148.61 723.79
  A 424.60 424.60 0.0 0 1 724.01 1148.39
  A 424.60 424.60 0.0 0 1 299.41 723.79
  A 424.60 424.60 0.0 0 1 724.01 299.19
  A 424.60 424.60 0.0 0 1 1148.61 723.79
  Z
  M 656.79 864.75
  L 791.22 864.75
  A 0.97 0.95 -6.4 0 1 792.16 865.49
  L 817.04 971.44
  A 0.72 0.72 0.0 0 0 817.74 972.00
  L 975.25 972.00
  A 0.71 0.70 -8.0 0 0 975.93 971.10
  Q 911.95 744.65 848.01 518.00
  C 840.45 491.18 820.29 475.38 792.24 475.42
  Q 724.09 475.51 655.94 475.50
  C 634.29 475.49 615.70 484.83 605.49 503.86
  Q 602.39 509.64 598.73 522.62
  Q 535.31 747.13 472.15 970.90
  Q 471.84 972.00 472.99 972.00
  L 630.20 972.00
  A 0.83 0.82 -83.3 0 0 631.00 971.36
  L 655.86 865.49
  A 0.97 0.95 -83.1 0 1 656.79 864.75
  Z"
/>
<path fill="#101820" d="
  M 1207.09 341.71
  C 1197.13 352.69 1187.92 363.99 1178.94 375.71
  A 0.76 0.75 44.0 0 1 1177.75 375.73
  L 1164.17 358.80
  A 0.79 0.79 0.0 0 1 1164.47 357.59
  Q 1184.60 348.67 1203.73 337.78
  Q 1204.24 337.49 1204.62 337.93
  L 1207.11 340.85
  A 0.65 0.65 0.0 0 1 1207.09 341.71
  Z"
/>
<path fill="#101820" d="
  M 1305.25 503.02
  A 0.71 0.71 0.0 0 1 1306.15 503.45
  L 1311.73 519.38
  A 9.72 9.24 70.7 0 1 1306.22 531.60
  L 1299.48 533.96
  A 9.72 9.24 70.7 0 1 1287.55 527.84
  L 1281.97 511.92
  A 0.71 0.71 0.0 0 1 1282.41 511.02
  L 1305.25 503.02
  Z"
/>
<path fill="#101820" d="
  M 146.07 509.79
  A 0.14 0.14 0.0 0 1 146.01 509.62
  L 147.57 505.46
  A 0.78 0.78 0.0 0 1 148.49 504.98
  C 162.87 508.66 177.41 509.99 191.83 511.93
  A 0.75 0.75 0.0 0 1 192.43 512.93
  L 184.83 533.35
  A 0.68 0.68 0.0 0 1 183.80 533.67
  Q 165.57 520.73 146.07 509.79
  Z"
/>
<path fill="#101820" d="
  M 1257.23 519.88
  A 0.95 0.95 0.0 0 1 1258.44 520.46
  L 1264.47 537.59
  A 10.93 10.90 70.6 0 1 1257.82 551.52
  L 1249.62 554.41
  A 10.93 10.90 70.6 0 1 1235.70 547.72
  L 1229.67 530.59
  A 0.95 0.95 0.0 0 1 1230.25 529.38
  L 1257.23 519.88
  Z"
/>
<path fill="#101820" d="
  M 681.80 755.50
  A 0.50 0.50 0.0 0 1 681.31 754.89
  Q 692.19 707.73 703.01 660.50
  C 708.11 638.24 711.40 615.48 714.10 592.82
  A 0.60 0.59 -86.7 0 1 714.69 592.29
  L 733.31 592.17
  A 0.43 0.43 0.0 0 1 733.75 592.56
  C 736.27 615.48 739.93 638.20 745.06 660.68
  Q 755.68 707.15 766.60 754.44
  Q 766.85 755.50 765.76 755.50
  L 681.80 755.50
  Z"
/>
<path fill="#101820" d="
  M 1281.42 890.39
  C 1283.18 887.63 1284.93 884.09 1286.41 882.04
  C 1296.10 868.58 1311.88 869.61 1325.70 874.78
  C 1340.12 880.17 1349.93 888.40 1348.72 905.26
  C 1348.13 913.54 1346.27 921.20 1343.37 929.80
  Q 1332.54 961.88 1319.70 992.98
  A 0.94 0.93 21.1 0 1 1318.52 993.50
  L 1191.80 948.96
  Q 1191.16 948.74 1191.35 948.09
  Q 1199.86 918.32 1210.70 888.99
  C 1214.50 878.72 1218.24 870.69 1224.21 862.73
  C 1235.14 848.17 1253.79 852.98 1267.57 859.91
  Q 1285.98 869.17 1280.46 889.96
  A 0.53 0.53 0.0 0 0 1281.42 890.39
  Z
  M 1231.46 918.67
  L 1254.33 926.76
  A 0.68 0.68 0.0 0 0 1255.20 926.35
  L 1260.92 910.19
  A 9.54 9.22 -70.5 0 0 1255.41 898.12
  L 1248.64 895.73
  A 9.54 9.22 -70.5 0 0 1236.77 901.64
  L 1231.05 917.80
  A 0.68 0.68 0.0 0 0 1231.46 918.67
  Z
  M 1279.04 935.36
  L 1306.94 945.18
  A 0.46 0.46 0.0 0 0 1307.52 944.90
  L 1313.76 927.20
  A 10.77 10.66 -70.6 0 0 1307.28 913.50
  L 1298.62 910.45
  A 10.77 10.66 -70.6 0 0 1284.99 917.06
  L 1278.76 934.77
  A 0.46 0.46 0.0 0 0 1279.04 935.36
  Z"
/>
<path fill="#101820" d="
  M 136.65 924.99
  Q 136.38 924.26 135.60 924.36
  L 106.98 928.04
  A 0.61 0.60 75.9 0 1 106.34 927.65
  L 91.53 887.98
  A 0.52 0.52 0.0 0 1 91.97 887.29
  Q 154.18 882.13 216.54 876.92
  C 227.28 876.02 232.69 878.02 236.52 887.96
  Q 241.10 899.86 245.51 911.81
  Q 250.10 924.26 250.31 926.49
  C 251.14 935.56 245.06 939.21 237.36 944.87
  Q 189.22 980.25 140.45 1016.05
  Q 139.65 1016.63 139.30 1015.71
  L 124.74 976.73
  A 1.14 1.13 -27.0 0 1 125.18 975.39
  L 148.87 959.58
  Q 149.51 959.15 149.24 958.42
  L 136.65 924.99
  Z
  M 213.66 917.51
  L 212.09 913.59
  A 0.77 0.77 0.0 0 0 211.19 913.13
  C 196.57 916.73 182.32 918.18 167.93 920.07
  A 0.84 0.84 0.0 0 0 167.25 921.20
  L 174.79 941.55
  A 0.59 0.59 0.0 0 0 175.66 941.83
  C 187.90 933.67 200.16 924.77 213.32 918.39
  A 0.69 0.69 0.0 0 0 213.66 917.51
  Z"
/>
<path fill="#101820" d="
  M 257.66 1092.25
  A 0.60 0.60 0.0 0 0 256.72 1092.28
  C 254.32 1095.45 251.88 1098.14 248.69 1100.88
  Q 232.26 1115.01 215.49 1129.08
  A 0.70 0.70 0.0 0 1 214.50 1129.00
  L 187.92 1097.68
  A 0.91 0.91 0.0 0 1 188.02 1096.39
  L 290.41 1009.64
  A 0.80 0.79 49.3 0 1 291.53 1009.73
  L 317.88 1040.88
  A 1.11 1.11 0.0 0 1 317.75 1042.44
  Q 303.76 1054.44 289.66 1065.88
  Q 284.43 1070.12 278.56 1073.27
  Q 277.97 1073.59 278.40 1074.10
  L 282.38 1078.82
  Q 282.81 1079.33 283.46 1079.20
  L 339.73 1067.71
  A 1.39 1.39 0.0 0 1 341.06 1068.17
  L 369.47 1101.77
  A 0.60 0.60 0.0 0 1 369.12 1102.75
  Q 339.25 1107.97 309.05 1113.04
  C 302.60 1114.12 298.17 1114.08 292.59 1111.71
  A 0.56 0.56 0.0 0 0 291.82 1112.34
  C 293.41 1120.04 292.29 1125.96 289.35 1133.89
  Q 278.92 1162.12 268.13 1190.97
  A 0.60 0.59 35.1 0 1 267.12 1191.14
  L 237.64 1156.32
  A 1.31 1.31 0.0 0 1 237.43 1154.95
  L 261.57 1097.62
  Q 261.80 1097.09 261.42 1096.64
  L 257.66 1092.25
  Z"
/>
<path fill="#101820" d="
  M 1221.54 1096.64
  Q 1220.72 1096.25 1220.16 1096.96
  L 1197.90 1124.86
  A 0.79 0.79 0.0 0 0 1197.89 1125.85
  L 1215.79 1148.59
  Q 1216.12 1149.01 1215.79 1149.43
  L 1189.57 1182.31
  A 0.67 0.67 0.0 0 1 1188.50 1182.28
  Q 1151.98 1131.51 1115.51 1080.47
  C 1108.78 1071.04 1108.91 1065.64 1115.88 1056.90
  Q 1126.76 1043.26 1137.69 1029.68
  C 1144.28 1021.50 1151.22 1023.00 1160.47 1026.89
  Q 1216.81 1050.58 1274.15 1074.81
  A 0.76 0.76 0.0 0 1 1274.45 1075.99
  L 1248.54 1108.49
  Q 1248.00 1109.17 1247.22 1108.80
  L 1221.54 1096.64
  Z
  M 1149.57 1066.63
  Q 1164.60 1082.87 1177.74 1100.69
  A 0.75 0.74 46.1 0 0 1178.92 1100.72
  L 1192.62 1083.59
  A 0.78 0.78 0.0 0 0 1192.32 1082.39
  Q 1172.04 1073.57 1152.89 1062.52
  Q 1152.36 1062.21 1151.98 1062.69
  L 1149.54 1065.78
  Q 1149.19 1066.22 1149.57 1066.63
  Z"
/>
<path fill="#101820" d="
  M 386.35 1245.40
  L 365.79 1266.15
  Q 365.50 1266.44 365.15 1266.23
  L 329.21 1244.49
  A 0.76 0.76 0.0 0 1 329.08 1243.28
  Q 375.98 1199.46 422.81 1155.81
  C 429.46 1149.61 435.94 1150.44 443.47 1154.92
  Q 465.30 1167.88 474.35 1173.64
  C 482.59 1178.89 482.20 1185.87 479.68 1194.98
  Q 463.48 1253.76 446.64 1314.51
  Q 446.37 1315.48 445.50 1314.96
  L 409.62 1293.20
  Q 409.14 1292.91 409.31 1292.37
  L 418.34 1264.88
  A 0.80 0.80 0.0 0 0 417.99 1263.94
  L 387.16 1245.29
  Q 386.72 1245.03 386.35 1245.40
  Z
  M 411.40 1219.72
  C 410.82 1220.31 409.04 1221.36 408.62 1222.57
  Q 408.41 1223.16 408.94 1223.49
  L 427.35 1234.71
  A 0.83 0.82 -66.3 0 0 428.57 1234.23
  Q 434.68 1213.05 443.21 1192.72
  Q 443.47 1192.10 442.90 1191.76
  L 439.68 1189.83
  Q 439.13 1189.50 438.72 1189.98
  Q 425.57 1205.33 411.40 1219.72
  Z"
/>
<path fill="#101820" d="
  M 1073.28 1275.27
  C 1057.88 1285.34 1040.03 1283.53 1029.38 1267.60
  Q 1000.15 1223.88 970.96 1180.46
  A 0.75 0.75 0.0 0 1 971.16 1179.42
  L 1005.56 1156.33
  A 0.55 0.54 55.7 0 1 1006.32 1156.48
  Q 1031.59 1194.05 1056.82 1231.71
  C 1060.25 1236.83 1063.43 1240.22 1069.47 1236.22
  Q 1088.31 1223.73 1106.92 1211.10
  A 0.93 0.93 0.0 0 1 1108.18 1211.31
  L 1126.06 1234.70
  Q 1127.22 1236.22 1125.72 1237.40
  Q 1099.92 1257.86 1073.28 1275.27
  Z"
/>
<path fill="#101820" d="
  M 594.52 1254.48
  A 1.52 1.52 0.0 0 0 591.51 1254.24
  L 571.53 1354.45
  A 0.62 0.61 10.6 0 1 570.82 1354.93
  L 534.74 1348.97
  Q 533.54 1348.77 533.79 1347.58
  Q 545.82 1289.20 557.70 1231.49
  C 559.42 1223.13 563.82 1216.31 573.50 1217.78
  Q 600.81 1221.92 612.93 1224.34
  Q 624.79 1226.71 625.09 1239.25
  C 625.69 1264.30 626.83 1289.22 625.01 1314.25
  A 0.88 0.87 -1.4 0 0 625.99 1315.18
  Q 626.84 1315.07 627.17 1313.84
  C 632.82 1292.75 640.44 1272.13 647.71 1251.52
  C 653.02 1236.49 655.31 1231.34 671.96 1234.04
  Q 688.79 1236.77 705.55 1239.65
  C 719.11 1241.99 718.85 1250.51 717.35 1262.44
  Q 710.21 1319.42 703.00 1376.21
  A 0.65 0.65 0.0 0 1 702.25 1376.77
  L 665.74 1370.73
  A 0.72 0.72 0.0 0 1 665.14 1369.93
  L 677.85 1268.54
  A 1.63 1.62 -31.3 0 0 674.71 1267.78
  Q 663.19 1298.86 651.46 1330.44
  C 648.56 1338.26 644.47 1344.78 635.00 1343.49
  Q 616.97 1341.02 608.01 1338.97
  C 601.14 1337.41 597.17 1332.09 596.85 1325.18
  C 595.77 1301.45 595.44 1277.84 594.52 1254.48
  Z"
/>
<rect fill="#101820" x="-21.17" y="-67.93" transform="translate(814.30,1302.50) rotate(-8.8)" width="42.34" height="135.86" rx="0.91"/>
</svg>
